<svg version="1.2" xmlns="http://www.w3.org/2000/svg" viewBox="0 0 341 421" width="341" height="421"><style>.a{fill:#960d19}.b{opacity:.1;fill:#2e0909}.c{opacity:.05;fill:#2e0603}.d{fill:#890b15}.e{fill:#610a13}.f{fill:#ae0d1d}.g{fill:#470711}.h{fill:#8f0b1a}.i{fill:#6f030f}.j{fill:#8a0714}.k{fill:#530a11}.l{opacity:.18;fill:#39050a}.m{opacity:.25;fill:#350708}.n{fill:#69050e}.o{fill:#6d050e}.p{fill:#7e0b18}.q{fill:#990b1a}.r{fill:#ac0f1d}.s{opacity:.25;fill:#47070d}.t{fill:#a10d1e}.u{fill:#780f18}.v{fill:#890d18}.w{fill:#52030d}.x{fill:#1d0706}.y{fill:#670510}.z{fill:#5d0b14}.A{fill:#230605}.B{fill:#37050d}.C{fill:#3f040d}.D{fill:#2e0907}.E{fill:#2d070b}.F{fill:#b60519}.G{fill:#7d0511}.H{fill:#250604}.I{fill:#4d090e}.J{fill:#160306}.K{opacity:.26;fill:#260505}.L{fill:#780114}.M{fill:#780a14}.N{fill:#26040d}.O{fill:#ad0e21}.P{fill:#961d28}.Q{fill:#19060a}.R{fill:#230403}.S{fill:#180507}.T{fill:#520f17}.U{fill:#510b14}.V{fill:#150507}.W{fill:#23070c}.X{opacity:.18;fill:#270406}.Y{opacity:1;fill:#4e0611}.Z{fill:#270305}.a0{fill:#360610}.a1{fill:#9e1a28}.a2{fill:#731d24}.a3{fill:#600915}.a4{fill:#0b070a}.a5{fill:#810413}.a6{opacity:.07;fill:#481518}.a7{fill:#350a0d}.a8{fill:#8d0717}.a9{fill:#922532}.aa{fill:#3f070d}.ab{fill:#13060b}.ac{fill:#210509}.ad{fill:#8c101c}.ae{fill:#2d0310}.af{fill:#af0418}.ag{opacity:.01;fill:#201b18}.ah{fill:#38040c}.ai{fill:#580911}.aj{opacity:.01;fill:#27211c}.ak{fill:#6a0814}.al{fill:#6f0812}.am{fill:#21070b}.an{fill:#320404}.ao{fill:#360608}.ap{fill:#b5081d}.aq{fill:#0f0608}.ar{fill:#300812}.as{fill:#5a282b}.at{opacity:.07;fill:#2e2720}.au{fill:#19040a}.av{fill:#55030e}.aw{fill:#36050e}.ax{fill:#570412}.ay{fill:#49050f}.az{fill:#3f060d}.aA{opacity:0;fill:#0e0e08}.aB{fill:#10060c}.aC{fill:#621a23}.aD{opacity:.13;fill:#463e37}.aE{opacity:.13;fill:#2c211a}.aF{fill:#9b0417}.aG{fill:#cc031b}.aH{fill:#54040f}.aI{fill:#2b050b}.aJ{fill:#680710}.aK{fill:#9d0618}.aL{fill:#ae0418}.aM{fill:#480c0d}.aN{opacity:.1;fill:#28231b}.aO{fill:#4e1111}.aP{fill:#1d050a}.aQ{fill:#bc0419}.aR{fill:#d5ba97}.aS{fill:#820815}.aT{fill:#5f040d}.aU{fill:#aa0a19}.aV{fill:#990b1f}.aW{opacity:.11;fill:#383229}.aX{opacity:.04;fill:#17120f}.aY{fill:#e0c6a1}.aZ{opacity:.23;fill:#322824}.b0{fill:#350305}.b1{fill:#700e1c}.b2{fill:#dcc2a2}.b3{opacity:.25;fill:#423c34}.b4{fill:#9d876b}.b5{fill:#0d090b}.b6{fill:#820c19}.b7{opacity:.44;fill:#454037}.b8{fill:#5d0713}.b9{opacity:.25;fill:#493931}.ba{opacity:.05;fill:#33261d}.bb{fill:#d0b58e}.bc{fill:#dcc19e}.bd{fill:#d5bb97}.be{opacity:.02;fill:#161412}.bf{opacity:.42;fill:#645a51}.bg{fill:#d4ba99}.bh{fill:#1f0c0e}.bi{opacity:.12;fill:#1f1812}.bj{fill:#cbb088}.bk{fill:#e2caa9}.bl{fill:#aa8f6b}.bm{fill:#c4b39f}.bn{fill:#1c1610}.bo{opacity:.06;fill:#1b140c}.bp{fill:#d3b791}.bq{fill:#dac09d}.br{fill:#d5bd9b}.bs{fill:#c3b199}.bt{fill:#665136}.bu{fill:#c9ad86}.bv{fill:#cdb18a}.bw{fill:#dfc6a4}.bx{opacity:.01;fill:#1c140d}.by{fill:#b49b7b}.bz{fill:#ac9475}.bA{fill:#655446}.bB{fill:#cbb39a}.bC{opacity:.07;fill:#1b0f04}.bD{fill:#c2a882}.bE{fill:#d0b897}.bF{opacity:.23;fill:#91785c}.bG{fill:#1f1115}.bH{fill:#ccb18e}.bI{fill:#d9c19e}.bJ{opacity:.73;fill:#9e8f75}.bK{fill:#cdbca5}.bL{fill:#cebb9d}.bM{fill:#8f734e}.bN{fill:#100b0d}.bO{fill:#d2b793}.bP{fill:#c6ac88}.bQ{fill:#d8be9b}.bR{fill:#d6be9d}.bS{fill:#6b583b}.bT{fill:#bfaf9e}.bU{fill:#d7bb98}.bV{fill:#a99582}.bW{opacity:.62;fill:#503d2f}.bX{fill:#af9270}.bY{fill:#7a5f46}.bZ{fill:#bfaf9b}.c0{fill:#91785d}.c1{fill:#241217}.c2{fill:#190c12}.c3{fill:#675647}.c4{fill:#dec5a3}.c5{fill:#a98f6a}.c6{opacity:.05;fill:#160f08}.c7{opacity:.09;fill:#150d06}.c8{fill:#d4b897}.c9{fill:#c8b79e}.ca{fill:#d7bc99}.cb{fill:#ccb8a2}.cc{fill:#766659}.cd{fill:#140d0c}.ce{fill:#bcafa2}.cf{fill:#0c090d}.cg{fill:#180e14}.ch{fill:#d9c09d}.ci{fill:#d5bb9a}.cj{fill:#1c1015}.ck{opacity:.94;fill:#5b4731}.cl{fill:#76685a}.cm{fill:#0e0a0b}.cn{fill:#d6bd9c}.co{fill:#d2bba4}.cp{fill:#654b31}.cq{opacity:.8;fill:#4e3f31}.cr{fill:#887c6e}.cs{fill:#201016}.ct{fill:#30141b}.cu{opacity:.69;fill:#33261f}.cv{fill:#3e342a}.cw{fill:#ccb598}.cx{fill:#d9bf9c}.cy{fill:#130a10}.cz{fill:#231119}.cA{fill:#25121a}.cB{fill:#341922}.cC{fill:#dcc19f}.cD{opacity:.42;fill:#473529}.cE{fill:#d1b795}.cF{fill:#b5a38b}.cG{fill:#5a3e27}.cH{opacity:.88;fill:#4b3a29}.cI{fill:#5b4227}.cJ{fill:#d0b38e}.cK{fill:#543f2e}.cL{fill:#63452c}</style><path fill-rule="evenodd" class="a" d="m181.5 11.5q-5.2 1.2-11 1.5-3 2.6-7 3-11.7-0.6-22 4.5-1 1.5-2 3 2.9 1.2 6 2 1.3 1.2 1 3-3 0-6 0-4.1 9.1-6 19-0.4 0.9-1.5 1-1.5-0.8-2.5-2-0.3-6.7 2-13-0.5-1-1-2-2.4 2.9-6 3 6.6-3.9 8-11.5 6-3.5 12.5-5.5 0.3-0.5 0.5-1-3.4-1.5-7-1 0.6-1.1 2-1.5 10.8-1.2 21-3.5 6.8-0.5 13.5-2 3.9-0.1 5.5 3z"/><path fill-rule="evenodd" class="b" d="m181.5 7.5q12.4 0.2 18 11-2-0.5-4-1-0.5-3.3-3-5.5-4-1-8-2-2.2-0.6-3-2.5z"/><path fill-rule="evenodd" class="c" d="m218.5 23.5q-2.7-1.9-5-4.5-6-1.1-11.5 1.5-2.1-0.3-2.5-2 5.3 0.5 10.5-2 6.3 1.1 8.5 7z"/><path fill-rule="evenodd" class="d" d="m137.5 15.5q-5.8 1.4-12 2.5-5.1 1.9-0.5 3.5 2.8-2.5 6.5-3-2.7 3.9-3 9-3.7 0.2-6 3 0-2 0-4 1.8 0.3 3-1-2.5-1.6-5 0.5-2.1 6.1-7.5 9.5-2 5.8-1.5 12-1.7-5.7-0.5-12 3.3-1.5 3.5-5 1.5 0 3 0-0.3-2.5 1-4.5-0.8-1-2-1.5-3.6 3.7-8 6 6.2-7.5 14-13.5 7.4-2 15-1.5z"/><path fill-rule="evenodd" class="e" d="m181.5 7.5q0.8 1.9 3 2.5 4 1 8 2 2.5 2.2 3 5.5-1.7-1.4-3.5-3-0.8 0.5-1.5 1 2.1 3.2 3 7 1.2 1.9 3 3 1.9 3.5 6 3.5 2 2.4 3 5.5 1.4-2.3 1-5 1.8 4.3 0 9 0.4 3.3 3 5 1.6 4.4 0.5 9-3.4-5.9-7.5-11-0.1-4.2-0.5-9-5.5-5.6-13.5-6 0-2 0-4-6.2 0.1-12 2 0 1.5 0 3-2.6-0.5-1.5-3 3.9-1.5 7.5-3.5-1.5-2.2-4-2.5-4.2-1.5-9-1 0-1.5 0-3 6 0.2 12-0.5 3.5-2.1 0-2.5-1.6-3.1-5.5-3-6.7 1.5-13.5 2 0.5-1 1-2 9-3.2 18-1z"/><path fill-rule="evenodd" class="f" d="m137.5 15.5q1 0 2 0 3.6-0.5 7 1-0.3 0.5-0.5 1-6.5 2-12.5 5.5-1.4 7.6-8 11.5-1.2 3.5-4 6-0.6 5.6-3 10-2.7-2.1-2-6-0.2-8.4 6-14 2.3-2.8 6-3 0.3-5.1 3-9-3.7 0.5-6.5 3-4.6-1.6 0.5-3.5 6.2-1.1 12-2.5z"/><path fill-rule="evenodd" class="g" d="m202.5 41.5q-1.9 2.7-4.5 5-2.4 8.3-5.5 16.5 3.9-0.6 6-4.5 2-2 4-4 2 0 2 2 0.1 5.7-2 11 0.5 1 1 2 1.7-1.7 4-2-2.3 3.9-7 3 0.9-5.5 0.5-11-1.5 0.8-2.5 2-2.6 3.5-7 3 1-4.5 2-9-0.5-3.7-3-6.5 1.4-1.6 2-3.5-0.7-5.5-1-11-2.9-5.3-9-4-0.1 2.2 1 4-2 0-4 0 0.3 2-1 3.5 4.4 5.9 2 12.5 0.5-4.1-1-8-1.2 2.4-2 5-3 0.5-6 1 1.6-7.9-6-9-0.1-1.5 1-2.5 2-0.5 4-1-2.5-1.5-5-3 6.3 1.6 13 1.5 0.7-3.9-2-6 0-0.5 0-1 0-1.5 0-3 5.8-1.9 12-2 0 2 0 4 8 0.4 13.5 6 0.4 4.8 0.5 9z"/><path fill-rule="evenodd" class="h" d="m205.5 26.5q1.4 1.1 1 3 0.4 2.7-1 5-1-3.1-3-5.5-4.1 0-6-3.5 0.2-3-2-5 0.8-0.5 1.5-1 5.4 2.7 9.5 7z"/><path fill-rule="evenodd" class="i" d="m181.5 11.5q3.5 0.4 0 2.5-6 0.7-12 0.5 0 1.5 0 3 4.8-0.5 9 1 2.5 0.3 4 2.5-3.6 2-7.5 3.5-1.1 2.5 1.5 3 0 0.5 0 1 1.1 1.8 1 4-4 0.2-7-2.5-7.7-2.7-10.5 4.5-5 1.8-4.5 7-4.1-4.4 2-7 2.5-5.4-3.5-6-9.3 4.3-15 13-0.7 3-0.5 6-2 0-4 0 1.9-9.9 6-19 3 0 6 0 0.3-1.8-1-3-3.1-0.8-6-2 1-1.5 2-3 10.3-5.1 22-4.5 4-0.4 7-3 5.8-0.3 11-1.5z"/><path fill-rule="evenodd" class="j" d="m178.5 18.5q0 1.5 0 3-4.3-0.7-7 2.5 4.4 3.6-1 4.5-4.2-0.8-7-4-1 1-2 2-13.7-4.2 1-7 7.9-1.5 16-1z"/><path fill-rule="evenodd" class="k" d="m220.5 52.5q0.1 2.2-1 4-4.2 4.5-7 10-1.4 2.1-1 5-4.4-0.6-3 3 3.2-2.3 7-3-4.1 5.1-11 5 0.5-1 1-2-2.4-1.7-5-0.5-10.8 2.6-19 10-1.4 0.7-3 0.5 2.4-1.9 5-4-4.5-1.3-8-4 3.3 0.1 6.5 1 5.4-3.1 11.5-4 0.2-3.5 3.5-5 0.8-3.2 2.5-6-0.2-0.9-1-1 1-1.2 2.5-2 0.4 5.5-0.5 11 4.7 0.9 7-3 3.8-6.4 7-13 2-2.6 2-6.5-0.3-3.3-0.5-6.5-1.7-2.7-2-6-2.2-2.5-5.5-2-0.2 5.1 1 10-2.6-1.7-3-5 1.8-4.7 0-9 0.4-1.9-1-3 1-2.5 4-2-0.2 1.6 0.5 3 4.6 5.3 5.5 12 1.5 0 3 0-0.1 8.1-0.5 16 1.3-1.6 2.5-3z"/><path fill-rule="evenodd" class="l" d="m218.5 23.5q10.9 2 18 10-5-1.8-9-5.5-4.5-1.5-9-2.5 0-1 0-2z"/><path fill-rule="evenodd" class="m" d="m163.5 8.5q-0.5 1-1 2-10.2 2.3-21 3.5-1.4 0.4-2 1.5-1 0-2 0-7.6-0.5-15 1.5-7.8 6-14 13.5-9.9 2.3-20 4 9-3.8 19-5.5 7.1-8.1 16-14 20.2-2.3 40-6.5z"/><path fill-rule="evenodd" class="n" d="m130.5 46.5q-1-4.8-2-10-5.6 6.6-7 15-2.5 2.4-3-1 2.4-4.4 3-10 2.8-2.5 4-6 3.6-0.1 6-3 0.5 1 1 2-2.3 6.3-2 13z"/><path fill-rule="evenodd" class="o" d="m122.5 30.5q-6.2 5.6-6 14-1.1-4.3-0.5-9-3.5 4.6-3.5 10.5 2 6.7 2.5 13.5-1.1-1.3-2.5-2-2.1-0.7-2-3 1.4 0.7 2.5 2 0.3-0.8 0.5-1.5-2.1-3.5-2-7.5-0.5-6.2 1.5-12 5.4-3.4 7.5-9.5 2.5-2.1 5-0.5-1.2 1.3-3 1 0 2 0 4z"/><path fill-rule="evenodd" class="p" d="m195.5 17.5q2 0.5 4 1 0.4 1.7 2.5 2 5.5-2.6 11.5-1.5 2.3 2.6 5 4.5 0 1 0 2 4.5 1 9 2.5 4 3.7 9 5.5 0.3 3.3 2 6-4-2.5-8-5-1.4 2.4 0 5-2.5-4-7-6-1.2 8.5-2 17-1.3 0.5-1 2-1.2 1.4-2.5 3 0.4-7.9 0.5-16-1.5 0-3 0-0.9-6.7-5.5-12-0.7-1.4-0.5-3-3-0.5-4 2-4.1-4.3-9.5-7-0.8 0.5-1.5 1 2.2 2 2 5-1.8-1.1-3-3-0.9-3.8-3-7 0.8-0.5 1.5-1 1.8 1.6 3.5 3z"/><path fill-rule="evenodd" class="q" d="m218.5 25.5q2.8 5.5-3 7 0.2-2.5-0.5-5-5-1.8-4.5-7 1.6-0.2 3 0.5 2.3 2.6 5 4.5z"/><path fill-rule="evenodd" class="r" d="m111.5 47.5q-0.1 4 2 7.5-0.3 0.8-0.5 1.5-1.1-1.3-2.5-2-1.5-3-3-6-2.5-9.3 1-18 4.4-2.3 8-6 1.2 0.5 2 1.5-1.3 2-1 4.5-1.5 0-3 0-0.2 3.5-3.5 5-1.2 6.3 0.5 12z"/><path fill-rule="evenodd" class="s" d="m86.5 35.5q0 0.5 0 1-4.5 3.5-6.5 9-2.3 1.1-4 3-0.5 4.5 0.5 9-1.1-0.6-1.5-2-1-4 0-8 3-4 6-8 2.2-2.9 5.5-4z"/><path fill-rule="evenodd" class="t" d="m96.5 35.5q0.1 1.5-1 2.5-2.4 0.4-4.5 1.5-7.1 9.9-2.5 21 1 0 2 0 1.7 4.8 2 10 2.5 3.5 5 7-2.3 3.6-5 0-3.4-5.9-9-10-0.1-1.7-1-3 2.3 1.5 5 2-2.2-7-3-14.5 1.2-7.8 6-14-2.4-1.1-4.5 0.5-3.5 6-7 12-0.9 4.8 1.5 9-1-0.5-2-1-1 0-2 0 0-0.5 0-1-1-4.5-0.5-9 1.7-1.9 4-3 2-5.5 6.5-9 5-0.8 10-1z"/><path fill-rule="evenodd" class="u" d="m191.5 34.5q0.3 5.5 1 11-1.8 1.1-4 1 1.1-6.8-3-12 2.9-1.5 6 0z"/><path fill-rule="evenodd" class="v" d="m155.5 41.5q1 1 2 2-3.5-1-7-0.5-2.9 3-5 6.5-1-3-2-6-0.9 0.2-1 1-1.7 1.9-4 3-0.2-3 0.5-6 5.7-8.7 15-13 6 0.6 3.5 6-6.1 2.6-2 7z"/><path fill-rule="evenodd" class="w" d="m230.5 39.5q2.1 3.1 2 7-0.8 6.1-2 12-1.6 4.3-6 6 0.1-1.7 1-3 2.3 0 3.5-2 2.7-7.9 0.5-16-2.5 0.3-4.5-1-0.9 4.6-3.5 8 0.8-8.5 2-17 4.5 2 7 6z"/><path fill-rule="evenodd" class="x" d="m194.5 31.5q5.5 0.8 5 6.5 0.9 5.3-4 7.5-0.9-0.3-1.5-1-0.6-6.5 0.5-13z"/><path fill-rule="evenodd" class="y" d="m108.5 30.5q-3.5 8.7-1 18-1-1-2-2-0.5-2-1-4 0-2 0-4-3.8-0.7-6 2-4.1 5.6-7.5 12-0.7 4-0.5 8-1 0-2 0-0.6-5.5-0.5-11 5-7.2 11.5-13-1.2-1.3-3-1-5 0.2-10 1 0-0.5 0-1 0.5-1.3 2-1 10.1-1.7 20-4z"/><path fill-rule="evenodd" class="z" d="m176.5 28.5q2.7 2.1 2 6-6.7 0.1-13-1.5 2.5 1.5 5 3-2 0.5-4 1-1.1 1-1 2.5-4.8 7 3 11 1.5-1 3-2 3-0.5 6-1 0.8-2.6 2-5 1.5 3.9 1 8-0.6 3.2 2 5 2.2-2.7 3.5-6 1-6 0-12-1.6-1.3-2.5-3-1.1-1.8-1-4 6.1-1.3 9 4-3.1-1.5-6 0 4.1 5.2 3 12 2.2 0.1 4-1-0.6 1.9-2 3.5 2.5 2.8 3 6.5-1 4.5-2 9 4.4 0.5 7-3 0.8 0.1 1 1-1.7 2.8-2.5 6-3.3 1.5-3.5 5-6.1 0.9-11.5 4-3.2-0.9-6.5-1-1.5 0-3 0-4.8-1.2-10-2-21-2.7-42-5-14.6-7.1 2-4 9 0.1 18 1 2.4-0.4 4 1 5.1-0.2 10 1 9 5.4 19 1 0.4 1.1 1 2.5 1.3 0.3 2.5 0.5 3.2-2.9 7.5-4-1.8-1.4-4-1 3.8-1 8-2 2.3-5.1 4-10.5-1.3-1.8-2.5-3.5-1.9 2.7-5 4-0.7 1.4-0.5 3-3 0-6 0 0.4-5 0.5-10-2.5 2.7-5.5 1-2.7 1.1-5 3-2.1-1.7-4.5-3-0.3 1.9-1.5 3 1.4-5.9-4.5-7-3.8 3.7-7.5 7-2.5-1-2-4 2.1 0.2 4-0.5 1.7-1.1 0-2.5 2.7-1 5-2-1-1-2-2-0.5-5.2 4.5-7 2.8-7.2 10.5-4.5 3 2.7 7 2.5 0.1-2.2-1-4z"/><path fill-rule="evenodd" class="A" d="m183.5 34.5q0.9 1.7 2.5 3 1 6 0 12-1.3 3.3-3.5 6-2.6-1.8-2-5 2.4-6.6-2-12.5 1.3-1.5 1-3.5 2 0 4 0z"/><path fill-rule="evenodd" class="B" d="m225.5 61.5q1.1-5.4 1-11-1.9-0.4-3 1-1.8 2.7-4 5 1.1-1.8 1-4-0.3-1.5 1-2 2.6-3.4 3.5-8 2 1.3 4.5 1 2.2 8.1-0.5 16-1.2 2-3.5 2z"/><path fill-rule="evenodd" class="C" d="m130.5 46.5q0.3 2.5-2 3-1-2.4-1.5-5-1 3.5 0 7 1.4 4.6 5.5 7-7.2-2.4-9-10-1 4.5-2 9-2.6-0.6-3-3 1.5 0 3 0 0-1.5 0-3 1.4-8.4 7-15 1 5.2 2 10z"/><path fill-rule="evenodd" class="D" d="m165.5 39.5q7.6 1.1 6 9-1.5 1-3 2-7.8-4-3-11z"/><path fill-rule="evenodd" class="E" d="m214.5 54.5q0.4-2.2-1-4-2.1 1.7-3.5 4-1-1.3-2.5-2-1.5 2.1-3 4 0-2-2-2 2.4-4.1 2-9-3.7-0.3-5.5 3-2.1 5.2-0.5 10-2.1 3.9-6 4.5 3.1-8.2 5.5-16.5 2.6-2.3 4.5-5 4.1 5.1 7.5 11 1.1-4.6-0.5-9-1.2-4.9-1-10 3.3-0.5 5.5 2 0.3 3.3 2 6 0.3 3.3 0.5 6.5 0 3.9-2 6.5z"/><path fill-rule="evenodd" class="F" d="m82.5 64.5q-1-2.5-2-5-2.4-4.2-1.5-9 3.5-6 7-12 2.1-1.6 4.5-0.5-4.8 6.2-6 14 0.8 7.5 3 14.5-2.7-0.5-5-2z"/><path fill-rule="evenodd" class="G" d="m96.5 35.5q1.8-0.3 3 1-6.5 5.8-11.5 13-0.1 5.5 0.5 11-4.6-11.1 2.5-21 2.1-1.1 4.5-1.5 1.1-1 1-2.5z"/><path fill-rule="evenodd" class="H" d="m162.5 52.5q-6 2-12 0 3.7-3.3 7.5-7 5.9 1.1 4.5 7z"/><path fill-rule="evenodd" class="I" d="m142.5 44.5q1.8 8.6 10 13-5.8 1.6-10-3-1.6 2.1 1 3.5-0.9 0.7-2 0.5-7.3-3.4-13-9 2.3-0.5 2-3 1 1.2 2.5 2 1.1-0.1 1.5-1 2 0 4 0 2.3-1.1 4-3z"/><path fill-rule="evenodd" class="J" d="m202.5 54.5q-2 2-4 4-1.6-4.8 0.5-10 1.8-3.3 5.5-3 0.4 4.9-2 9z"/><path fill-rule="evenodd" class="K" d="m244.5 49.5q0 1.5 0 3 5.3 0.7 10 3.5 1.1 1 1 2.5-3.1-2.4-7-3-2.1-1.4-5-1-0.4-2.9 1-5z"/><path fill-rule="evenodd" class="L" d="m230.5 39.5q5.2 1.8 4 7.5 0.3 6.7-4 11.5 1.2-5.9 2-12 0.1-3.9-2-7z"/><path fill-rule="evenodd" class="M" d="m157.5 43.5q-2.3 1-5 2 1.7 1.4 0 2.5-1.9 0.7-4 0.5-0.5 3 2 4 6 2 12 0 1.2-1.1 1.5-3 2.4 1.3 4.5 3 2.3-1.9 5-3 3 1.7 5.5-1-0.1 5-0.5 10 3 0 6 0-0.2-1.6 0.5-3 3.1-1.3 5-4 1.2 1.7 2.5 3.5-1.7 5.4-4 10.5-4.2 1-8 2-2.7 0.4-5-1 7.9-8.4-1-3.5-2.3 0.3-4.5 0.5-5-1-10-2-5.7 1.2-11.5 2-2.8 0-5-1 1.1 0.2 2-0.5-1.8-2.1-4-3.5 1.1 0.2 2-0.5-2.6-1.4-1-3.5 4.2 4.6 10 3-8.2-4.4-10-13 0.1-0.8 1-1 1 3 2 6 2.1-3.5 5-6.5 3.5-0.5 7 0.5z"/><path fill-rule="evenodd" class="N" d="m223.5 51.5q1.1-1.4 3-1 0.1 5.6-1 11-0.9 1.3-1 3-4.9 2.9-9 7-3.8 0.7-7 3-1.4-3.6 3-3-0.4-2.9 1-5-0.3 1.8 1 3 3.9-3.8 5-9 2.7 0.4 5-1-0.5-1-1-2 1.9-1.7 3-4-0.4-1.8-2-2z"/><path fill-rule="evenodd" class="O" d="m238.5 39.5q7 7.8 1.5 17-4.7 3.9-7.5 9-2 0.5-4 1-3.7 0.2-6 3-1-0.3-2-0.5 2.3-2.1 4-4.5 4.4-1.7 6-6 4.3-4.8 4-11.5 1.2-5.7-4-7.5-1.4-2.6 0-5 4 2.5 8 5z"/><path fill-rule="evenodd" class="P" d="m128.5 49.5q5.7 5.6 13 9 2.2 1.4 4 3.5-0.9 0.7-2 0.5-2 0-4 0-2.8-3.2-7-4-4.1-2.4-5.5-7-1-3.5 0-7 0.5 2.6 1.5 5z"/><path fill-rule="evenodd" class="Q" d="m214.5 54.5q-3.2 6.6-7 13-2.3 0.3-4 2-0.5-1-1-2 2.1-5.3 2-11 1.5-1.9 3-4 1.5 0.7 2.5 2 1.4-2.3 3.5-4 1.4 1.8 1 4z"/><path fill-rule="evenodd" class="R" d="m105.5 46.5q1 1 2 2 1.5 3 3 6-0.1 2.3 2 3 0.8 2.8 3 5-3.2 1.7-6.5 0-1.5 0.5-1.5 2-0.9-0.4-1-1.5 2.1-2.8 2-6.5-1.9-4.8-3-10z"/><path fill-rule="evenodd" class="S" d="m132.5 58.5q0.7 1.5 1.5 3 4.4 1.2 6.5 5-9-0.9-18-1-5.3-4.3-7-11 1.3-3.6 3 0 0.4 2.4 3 3 1-4.5 2-9 1.8 7.6 9 10z"/><path fill-rule="evenodd" class="T" d="m116.5 44.5q-0.7 3.9 2 6 0.5 3.4 3 1 0 1.5 0 3-1.5 0-3 0-1.7-3.6-3 0 1.7 6.7 7 11-16.6-3.1-2 4-3.1 0-6-1-2.8-1.3-6-1 0.4-1.9-1-3 0-1.5 1.5-2 3.3 1.7 6.5 0-2.2-2.2-3-5 1.4 0.7 2.5 2-0.5-6.8-2.5-13.5 0-5.9 3.5-10.5-0.6 4.7 0.5 9z"/><path fill-rule="evenodd" class="U" d="m180.5 67.5q2.2-0.4 4 1-4.3 1.1-7.5 4-1.3-0.3-2.5-0.5-0.6-1.4-1-2.5-10 4.4-19-1 8 0.8 16 0.5 1.3-1.5 1-3.5-15 0.2-30-1.5-1.4-0.4-2-1.5 2 0 4 0 2.2 1 5 1 5.8-0.8 11.5-2 5 1 10 2 2.3-0.3 4.5-0.5 8.9-4.9 1 3.5 2.3 1.4 5 1z"/><path fill-rule="evenodd" class="V" d="m223.5 51.5q1.6 0.2 2 2-1.1 2.3-3 4 0.5 1 1 2-2.3 1.4-5 1-1.1 5.2-5 9-1.3-1.2-1-3 2.8-5.5 7-10 2.2-2.3 4-5z"/><path fill-rule="evenodd" class="W" d="m236.5 90.5q-1.5 1-3 2 2.8-12.8 3-25.5-4-0.3-8 0.5 0-0.5 0-1 2-0.5 4-1 2.5-2.3 5.5-4 4.3 2.2 1 6-0.3 11.8-2.5 23z"/><path fill-rule="evenodd" class="X" d="m76.5 58.5q1 0 2 0 0.4 3-1 5.5-4.9 2.2-10 3.5 4.1-2.8 9-5 1.7-2 0-4z"/><path fill-rule="evenodd" class="Y" d="m78.5 58.5q1 0.5 2 1 1 2.5 2 5 0.9 1.3 1 3-4.5-0.6-9 2-1.9 1.7 0 3-0.1 5.7-1 11.5 0 3.6 2 6.5-2 0-4 0-2.8-9.2-2-18.5-4-3-8 0-4.3 2.9-6 7.5-1.5 0.5-2 2-1.5-0.3-2 1-2.4 7.3 2 14-1.7-0.1-3-1-5.7-12 5-20.5 5.3-4.9 12-7.5 5.1-1.3 10-3.5 1.4-2.5 1-5.5z"/><path fill-rule="evenodd" class="Z" d="m132.5 58.5q4.2 0.8 7 4 0.6 1.1 2 1.5 15 1.7 30 1.5 0.3 2-1 3.5-8 0.3-16-0.5-4.9-1.2-10-1-1.6-1.4-4-1-2.1-3.8-6.5-5-0.8-1.5-1.5-3z"/><path fill-rule="evenodd" class="a0" d="m104.5 42.5q-2-0.3-3.5 1-1.6 7-4.5 13.5 2.6 7.7 5 15.5-4.8-1.7-5-7-6.8-8.4-1-18 3.9-2.4 3-7 2.2-2.7 6-2 0 2 0 4z"/><path fill-rule="evenodd" class="a1" d="m144.5 67.5q6.5 1.1 13 3.5-17.7 0.8-35-3 11-0.7 22-0.5z"/><path fill-rule="evenodd" class="a2" d="m224.5 64.5q-1.7 2.4-4 4.5 1 0.3 2 0.5 2.3-2.8 6-3 0 0.5 0 1-2.3 2.8-6 3-3.5 0.7-7 1 4.1-4.1 9-7z"/><path fill-rule="evenodd" class="a3" d="m83.5 67.5q5.6 4.1 9 10-3-2.5-6-5-2.1-2.1-3-5z"/><path fill-rule="evenodd" class="a4" d="m233.5 92.5q-6.6 9.8-15 18.5-1.9 1.2-4 1.5-4.5 1.7-9 0 2.8-4.7 4-10 2.1-2.1 3.5-5 1.2-10.2 5.5-19-0.7-1.5-2-2.5 2.1-3.8 6-5.5 3.7-0.2 6-3 4-0.8 8-0.5-0.2 12.7-3 25.5z"/><path fill-rule="evenodd" class="a5" d="m255.5 69.5q-0.9-0.2-1.5-1-0.3-4.4-1.5-8.5-0.5-0.3-1-0.5-1.5 3.4-1 7-2.5 6.9-3.5 15-3 5.7-7.5 10 4.3-7.5 6.5-16 0.9-4.8-0.5-9.5 0.6-2.9 2-5.5-0.2-1.4-1-2.5 4.1-1.2 7.5 1.5 0.7 5 1.5 10z"/><path fill-rule="evenodd" class="a6" d="m257.5 70.5q5.6 4.1 9 10-1.5-1-3-2-1-0.5-2-1-2-3.5-4-7z"/><path fill-rule="evenodd" class="a7" d="m102.5 74.5q5.2 6.6 11 13-8.2-4.2-11-13z"/><path fill-rule="evenodd" class="a8" d="m75.5 90.5q1.8 1.2 3 3-5.8-0.2-11-3-3.8-5.2-7-11-2.5-1.7-5 0 1.7-4.6 6-7.5 4-3 8 0-0.8 9.3 2 18.5 2 0 4 0z"/><path fill-rule="evenodd" class="a9" d="m204.5 76.5q-3.5 0.8-7 1.5-0.8 0.6-1 1.5-5.1 2.5-10 5-7.9 2.5-16 5-1.5 0-3 0 5-2.5 10-5 0.5 0 1 0 1.6 0.2 3-0.5 8.2-7.4 19-10 2.6-1.2 5 0.5-0.5 1-1 2z"/><path fill-rule="evenodd" class="aa" d="m236.5 33.5q1.9 1.2 3.5 3 3.1 6.3 4.5 13-1.4 2.1-1 5 2.9-0.4 5 1-2 0-4 0-0.7 13.6-2.5 27-2.1 4.6-5.5 8 2.2-11.2 2.5-23 3.3-3.8-1-6-3 1.7-5.5 4 2.8-5.1 7.5-9 5.5-9.2-1.5-17-1.7-2.7-2-6z"/><path fill-rule="evenodd" class="ab" d="m104.5 42.5q0.5 2 1 4 1.1 5.2 3 10 0.1 3.7-2 6.5 0.1 1.1 1 1.5 1.4 1.1 1 3 3.2-0.3 6 1 0.9 1.9 1.5 4 1.6-0.9 3.5-1 12.9 1.9 26 2.5 1 1 2 2 5.1 0.3 10 1.5-2.5 3.5-7 3-5.4-1.2-10.5-1-2.2 2.1 0.5 4.5 3.8 1.9 8 1.5-1.2 5.9 0 9.5-2.8 0.6-5.5 1.5-6.8-2.1-12.5-6-6-5.3-11-11.5-2.3-1.5-5-1.5 4 7.8 8 16-0.5 0.5-1 1-1.5-1-3-2-2.3-0.3-4-2-0.9-1.3-1-3-5.8-6.4-11-13 0.3-1.5-1-2-2.4-7.8-5-15.5 2.9-6.5 4.5-13.5 1.5-1.3 3.5-1z"/><path fill-rule="evenodd" class="ac" d="m83.5 67.5q0.9 2.9 3 5-3 1-6 2 0.7 7.5 1 15 2.7 3 6 5-2.4-0.8-5-1-2.2-2.5-5.5-4 0-7 0-14-1.3-1.6-2.5-3-1.9-1.3 0-3 4.5-2.6 9-2z"/><path fill-rule="evenodd" class="ad" d="m92.5 70.5q5 1.1 6.5 6 4.5 4.2 8.5 9 3.1 3.2 7 5 1.7 1.7 4 2 0 1 0 2 0 1.5-1.5 2-2.1-1.4-4.5-2-8.7-7.9-19-14.5-1.1-1-1-2.5 2.7 3.6 5 0-2.5-3.5-5-7z"/><path fill-rule="evenodd" class="ae" d="m162.5 74.5q5.2 0.8 10 2-1.3-0.2-2 1 1.7 2.1 0 4-6.5 1.3-13 2.5-5.3 5.6-7-1.5 8.2 0.7 13-6-0.5-1-1-2z"/><path fill-rule="evenodd" class="af" d="m255.5 69.5q2.5 7 5 14-7.7 0.2-11.5 7-1.9-0.9-2.5-3 2.7-4.7 4-10-1.1-5.3 0-11-0.5-3.6 1-7 0.5 0.3 1 0.5 1.2 4.1 1.5 8.5 0.6 0.8 1.5 1z"/><path fill-rule="evenodd" class="ag" d="m268.5 81.5q2.9 0.4 4 3-2.9-0.4-4-3z"/><path fill-rule="evenodd" class="ah" d="m74.5 72.5q1.2 1.4 2.5 3 0 7 0 14 3.3 1.5 5.5 4-2 0-4 0-1.2-1.8-3-3-2-2.9-2-6.5 0.9-5.8 1-11.5z"/><path fill-rule="evenodd" class="ai" d="m98.5 40.5q0.9 4.6-3 7-5.8 9.6 1 18 0.2 5.3 5 7 1.3 0.5 1 2 2.8 8.8 11 13 0.1 1.7 1 3-3.9-1.8-7-5-4-4.8-8.5-9-1.5-4.9-6.5-6-0.3-5.2-2-10-0.2-4 0.5-8 3.4-6.4 7.5-12z"/><path fill-rule="evenodd" class="aj" d="m272.5 84.5q3.4 0.9 5 4-3.4-1-5-4z"/><path fill-rule="evenodd" class="ak" d="m248.5 55.5q3.9 0.6 7 3 1.1 5.9 2 12-1-0.5-2-1-0.8-5-1.5-10-3.4-2.7-7.5-1.5 0.8 1.1 1 2.5-1.4 2.6-2 5.5 1.4 4.7 0.5 9.5-2.2 8.5-6.5 16-1.1 3.1-3 6-7 8.5-16 15 5.4-9.2 13.5-16 2.3-2.6 2.5-6 3.4-3.4 5.5-8 1.8-13.4 2.5-27 2 0 4 0z"/><path fill-rule="evenodd" class="al" d="m261.5 77.5q1 0.5 2 1 0.5 4 1 8-4.8 1.5-8.5 5-7 10.2-14.5 20-5.2 4.2-11 7 3-5.5 8-9 1.5-2.7 4.5-4 1.2-8.2 8.5-12 2-3.5 4-7 2.7-1.9 6-2 1.6-3.6 0-7z"/><path fill-rule="evenodd" class="am" d="m114.5 68.5q2.9 1 6 1 21 2.3 42 5 0.5 1 1 2-4.8 6.7-13 6 1.7 7.1 7 1.5 6.5-1.2 13-2.5 1.7-1.9 0-4 0.7-1.2 2-1 1.5 0 3 0 3.5 2.7 8 4-2.6 2.1-5 4-0.5 0-1 0-10.2 3.1-21 4.5-4.2 0.9-6 4.5-0.5 1-1 2-3.1 1.9-7 2.5-1.3 1.5-1 3.5-5 0-10 0 0 3.1 1 6-1.5 0.3-2-1 0.3-4.2-4-5 2.4-6.6 5-2 2.3 0.1 3-2-2-3.5-4-7 5.7 3.9 12.5 6 2.7-0.9 5.5-1.5-1.2-3.6 0-9.5-4.2 0.4-8-1.5-2.7-2.4-0.5-4.5 5.1-0.2 10.5 1 4.5 0.5 7-3-4.9-1.2-10-1.5-1-1-2-2-13.1-0.6-26-2.5-1.9 0.1-3.5 1-0.6-2.1-1.5-4z"/><path fill-rule="evenodd" class="an" d="m186.5 84.5q-0.7 1.4-2 2.5-7 1.9-14 3.5 0-0.5 0-1 8.1-2.5 16-5z"/><path fill-rule="evenodd" class="ao" d="m177.5 84.5q-5 2.5-10 5-8.9 0.9-17 4 1.8-3.6 6-4.5 10.8-1.4 21-4.5z"/><path fill-rule="evenodd" class="ap" d="m78.5 93.5q2 0 4 0 8 6 18 8 5 2 10 4.5 17.5 2.3 35 5 0.8 0.6 1 1.5-21.2-1.7-42-6-3.6-2.4-8-2.5-8.8-5.8-19-8.5-1.8 0.4-3.5 1-3-3.2-7.5-3-0.4 2.2 1 4 3.9 1.1 8 1.5 1.5 2.8 3 5.5-4.8-3.4-11-4-2.2-4.4-7-5.5-1.2-4.6-6-5-1.4-4.1-1-8.5 0.5-1.5 2-2 2.5-1.7 5 0 3.2 5.8 7 11 5.2 2.8 11 3z"/><path fill-rule="evenodd" class="aq" d="m86.5 72.5q3 2.5 6 5-0.1 1.5 1 2.5 10.3 6.6 19 14.5 5.4 3.9 11 8 1.7 1.7 2 4-12.6-2.1-25-5-6.6-3.2-13-7-3.3-2-6-5-0.3-7.5-1-15 3-1 6-2z"/><path fill-rule="evenodd" class="ar" d="m130.5 90.5q2 3.5 4 7-0.8 2.1-3 2-2.6-4.6-5 2 4.3 0.8 4 5-2.5 0-5 0-0.3-2.3-2-4 3.5-1.3 0.5-4-2.7-2.2-5.5-4 0-1 0-2 1.5 1 3 2 0.5-0.5 1-1-4-8.2-8-16 2.7 0 5 1.5 5 6.2 11 11.5z"/><path fill-rule="evenodd" class="as" d="m167.5 89.5q1.5 0 3 0 0 0.5 0 1-8.4 1.1-16 4-2.6 0.2-5 1 0.5-1 1-2 8.1-3.1 17-4z"/><path fill-rule="evenodd" class="at" d="m279.5 90.5q4.9 2.4 8 7-4.9-2.4-8-7z"/><path fill-rule="evenodd" class="au" d="m193.5 90.5q-17.1 3.1-29 15.5 1.7 1.5-1 2 2 1 0 2-5.3 1.9-11 1.5-6.9-2.2-14-3 9.2-0.5 18 2 1.5-0.5 3-1-3-1-6-2 3.7-2.5 4.5-7 6-2.3 12.5-2.5-4-1 0-2-7.9-1.8-16-1.5 7.6-2.9 16-4 7-1.6 14-3.5 1.3-1.1 2-2.5 4.9-2.5 10-5 5.2-2.2 10 0.5-3.3 3.1-8 3-1.1 2.1-1.5 4.5-2.6 0.7-3.5 3z"/><path fill-rule="evenodd" class="av" d="m82.5 93.5q2.6 0.2 5 1 6.4 3.8 13 7-10-2-18-8z"/><path fill-rule="evenodd" class="aw" d="m222.5 70.5q-3.9 1.7-6 5.5 1.3 1 2 2.5-4.3 8.8-5.5 19-1.4 2.9-3.5 5-2.5 2.2-4 5.5-2.4 0.4-4.5 1.5-1.5 5.1-6 8-1 1.2 0.5 2 2.4-1.2 5-1-3.4 1.6-6 4-1 0-2 0 1.6-1.6 0-3-9-1-13-9-11.8-3.3 1-5 2.7-4 2-9 3.7 0.3 7-1.5 1.3-3 4-4.5 0.9-2.3 3.5-3 0.4-2.4 1.5-4.5 4.7 0.1 8-3-4.8-2.7-10-0.5 0.2-0.9 1-1.5 3.5-0.7 7-1.5 6.9 0.1 11-5 3.5-0.3 7-1z"/><path fill-rule="evenodd" class="ax" d="m205.5 101.5q-5.1 2.8-10.5 5 1.2-3.5-0.5-7 0.3-1.5 0.5-3 0.5 0.5 1 1 4.6-5.7 10-11 0.7-1.4 0.5-3 7.4-6.8 6 4 0.5 9.2-7 14z"/><path fill-rule="evenodd" class="ay" d="m206.5 83.5q0.2 1.6-0.5 3-5.4 5.3-10 11-0.5-0.5-1-1-0.3 1.5-0.5 3 1.7 3.5 0.5 7 5.4-2.2 10.5-5-3.8 5.4-9 9.5-11.8 4.3-12-8.5 5.1-0.6 5.5-6 3.8-5.8 10.5-6.5 3.4-3.1 6-6.5z"/><path fill-rule="evenodd" class="az" d="m236.5 90.5q-0.2 3.4-2.5 6-8.1 6.8-13.5 16-7.9 3.3-16 6 5.4-2.3 10-6 2.1-0.3 4-1.5 8.4-8.7 15-18.5 1.5-1 3-2z"/><path fill-rule="evenodd" class="aA" d="m287.5 97.5q2 0 2 2-1.5-0.5-2-2z"/><path fill-rule="evenodd" class="aB" d="m154.5 94.5q8.1-0.3 16 1.5-4 1 0 2-6.5 0.2-12.5 2.5-0.8 4.5-4.5 7 3 1 6 2-1.5 0.5-3 1-8.8-2.5-18-2-3-0.5-6-1-1-2.9-1-6 5 0 10 0-0.3-2 1-3.5 3.9-0.6 7-2.5 2.4-0.8 5-1z"/><path fill-rule="evenodd" class="aC" d="m112.5 94.5q2.4 0.6 4.5 2 1.5-0.5 1.5-2 2.8 1.8 5.5 4 3 2.7-0.5 4-5.6-4.1-11-8z"/><path fill-rule="evenodd" class="aD" d="m289.5 99.5q4.6 3.1 7 8-4.6-3.1-7-8z"/><path fill-rule="evenodd" class="aE" d="m50.5 95.5q1.3 0.9 3 1 0 0.5 0 1 0 2 0 4-5 6-11 11 3.9-5.7 8.5-11 0.7-3.1-0.5-6z"/><path fill-rule="evenodd" class="aF" d="m53.5 81.5q-0.4 4.4 1 8.5 4.8 0.4 6 5 4.8 1.1 7 5.5 6.2 0.6 11 4 1.8 1.3 4 2 5 1 10 2-7.1 0.2-14-1-4.9-4.7-12-4 0-1.5 0-3-1.6 0.2-3-0.5-3.9-4.4-9-7.5-2.9-4.5-3-10 0.5-1.3 2-1z"/><path fill-rule="evenodd" class="aG" d="m146.5 112.5q7.2 2.1 15 3.5 2.9 0.6 3 3.5-3 0-6 0-28.4-2.1-56-8.5-2.5-2-5-4-7.5-0.7-15-0.5-2.2-0.7-4-2-1.5-2.7-3-5.5-4.1-0.4-8-1.5-1.4-1.8-1-4 4.5-0.2 7.5 3 1.7-0.6 3.5-1 10.2 2.7 19 8.5 4.4 0.1 8 2.5 20.8 4.3 42 6z"/><path fill-rule="evenodd" class="aH" d="m100.5 101.5q12.4 2.9 25 5 2.5 0 5 0 0.5 1.3 2 1 3 0.5 6 1 7.1 0.8 14 3 0 0.5 0 1-3 0-6 0-0.2-0.9-1-1.5-17.5-2.7-35-5-5-2.5-10-4.5z"/><path fill-rule="evenodd" class="aI" d="m193.5 90.5q-2.7 1.5-4 4.5-3.3 1.8-7 1.5 0.7 5-2 9-12.8 1.7-1 5 4 8 13 9 1.6 1.4 0 3-9.3 2.1-18 6 0.2-0.9 1-1.5-1.6-1.3-3-2.5 3 0 6 0 0.4-3.4-1-6-1 0-1-1-1.8-2.4-5-2.5-8.4-2.2-17-2.5-1 0-2 0 0-0.5 0-1 5.7 0.4 11-1.5 2-1 0-2 2.7-0.5 1-2 11.9-12.4 29-15.5z"/><path fill-rule="evenodd" class="aJ" d="m51.5 82.5q0.1 5.5 3 10 5.1 3.1 9 7.5 1.4 0.7 3 0.5 0 1.5 0 3 7.1-0.7 12 4 1.2 1.8 3 3-4-0.7-7-3.5-5-0.7-10-0.5 0.3-1.8-1-3-6-1.6-10-6 0-0.5 0-1-4.4-6.7-2-14z"/><path fill-rule="evenodd" class="aK" d="m250.5 66.5q-1.1 5.7 0 11-1.3 5.3-4 10 0.6 2.1 2.5 3 3.8-6.8 11.5-7-2.5-7-5-14 1 0.5 2 1 2 3.5 4 7 1.6 3.4 0 7-3.3 0.1-6 2-2 3.5-4 7-7.3 3.8-8.5 12-3 1.3-4.5 4-2.1-0.1-4 1-7.3 12.7-22 13-4.1 4-10 3 10.9-5.4 23-8.5 4.8-2.5 7-7.5 2.1-1.7 4.5-3 0.2-5.5 5-8 1.2-2.2-0.5-4-2.4 1.4-5 2 1.9-2.9 3-6 4.5-4.3 7.5-10 1-8.1 3.5-15z"/><path fill-rule="evenodd" class="aL" d="m82.5 106.5q7.5-0.2 15 0.5 2.5 2 5 4 27.6 6.4 56 8.5-22.2 0.8-44-3.5-11.3-3.5-22-7.5-5-1-10-2z"/><path fill-rule="evenodd" class="aM" d="m264.5 86.5q0.2 3-0.5 6-3.7 2.9-5.5 7-2.6 0.9-5 2.5-4.7 7.4-11 13.5-7.6 4.3-14 10.5-6.6 3.3-13 6.5-4.2 2.1-9 2-8.3-0.3-16-2 8.1 0.5 16-1-0.3-0.9-1-1.5 11.8-1.2 22-7 1.9-2.1 3-4.5 5.8-2.8 11-7 7.5-9.8 14.5-20 3.7-3.5 8.5-5z"/><path fill-rule="evenodd" class="aN" d="m296.5 107.5q3.6 2.1 5 6-3.6-2.1-5-6z"/><path fill-rule="evenodd" class="aO" d="m53.5 97.5q4 4.4 10 6 1.3 1.2 1 3 5-0.2 10 0.5 3 2.8 7 3.5 10.5 1.4 21 3.5 4.6 0.9 8 4 7.8 0.7 15 2.5-7.5-0.4-15-1-3.8-0.5-7 1-9.9-4-20-7.5-14.3-1.5-27-8-1-2.3-3-3.5 0-2 0-4z"/><path fill-rule="evenodd" class="aP" d="m209.5 102.5q-1.2 5.3-4 10 4.5 1.7 9 0-4.6 3.7-10 6-2 0-4 0-2.6-0.2-5 1-1.5-0.8-0.5-2 4.5-2.9 6-8 2.1-1.1 4.5-1.5 1.5-3.3 4-5.5z"/><path fill-rule="evenodd" class="aQ" d="m202.5 126.5q-1.3 2.5-4 3.5-7 0.7-14 0.5-0.3-2 1-3.5 4-1 8-2 1.1-1 1-2.5 10.1-1.8 20-4.5 3.7-2 6-5.5 9-6.5 16-15 2.6-0.6 5-2 1.7 1.8 0.5 4-4.8 2.5-5 8-2.4 1.3-4.5 3-2.2 5-7 7.5-12.1 3.1-23 8.5z"/><path fill-rule="evenodd" class="aR" d="m242.5 115.5q6.3-6.1 11-13.5 2.4-1.6 5-2.5 1.9-1.2 3.5-3 1.5 5.1 6 8 1.1-2.9-0.5-5.5 8.3-4 14 3-1.5 0.5-3 1 4 0.8 7.5-1.5 1.9 3.2 5.5 3 0.7 7.5-2.5 2-2 2.4-1.5 5-1.9-1.1-4-1-0.2 2.4 2 3.5-2.6 1.2-5-0.5 4-1.5 0-3-5.7 2.6 0 5.5-2.7 0.5-1 2-2.2 0.6-1.5 2.5 5.2-0.8 10-3 1.4 0.6 2 2 2.5-1.3 0.5 1.5 1 0.5 2 1-3.8-1.2-8-1 0.6 2.4-2 4.5-1.5-2-3 0-0.5-0.3-1-0.5 1.9-1.4 4-2.5-0.3-0.5-0.5-1-6.5-1-13.5 0 0.1-2.1-1-4-3.7-1.6-7-4-0.5 0.5-1 1 0.9 1.9 1.5 4 1.1-1.4 2.5-0.5-2.1 4.2-4.5 0.5-0.8 0.8-1.5 1.5 6 3.3 0 3 2.9 1.9 1 4.5-3.6-2.1-5-6 0.3-0.9 1-1.5-1.9-1-3.5 0.5-1.8-0.9-3.5-2 8.8-1.8 0-4-2.4 1.2-5 1z"/><path fill-rule="evenodd" class="aS" d="m78.5 107.5q6.9 1.2 14 1 10.7 4 22 7.5 21.8 4.3 44 3.5 3 0 6 0 1.3 0.5 1 2-8 0-16 0-12-0.2-24-1-7.2-1.8-15-2.5-3.4-3.1-8-4-10.5-2.1-21-3.5-1.8-1.2-3-3z"/><path fill-rule="evenodd" class="aT" d="m154.5 112.5q8.6 0.3 17 2.5 3.2 0.1 5 2.5-11.6-0.7-22-5z"/><path fill-rule="evenodd" class="aU" d="m146.5 112.5q3 0 6 0 1 0 2 0 10.4 4.3 22 5 0 1 1 1 0 2 0 4-6.1 0-12-1 0.3-1.5-1-2-0.1-2.9-3-3.5-7.8-1.4-15-3.5z"/><path fill-rule="evenodd" class="aV" d="m220.5 112.5q-2.3 3.5-6 5.5-9.9 2.7-20 4.5 2.6-2.4 6-4 2 0 4 0 8.1-2.7 16-6z"/><path fill-rule="evenodd" class="aW" d="m303.5 115.5q2.6 1.1 3 4-2.6-1.1-3-4z"/><path fill-rule="evenodd" class="aX" d="m40.5 115.5q0 1 0 2-1.8 3.6-5 6 1.8-4.5 5-8z"/><path fill-rule="evenodd" class="aY" d="m105.5 157.5q-3 0-6 0-6.3-1.2-5 6-4.6 0.1-1-1.5-1-0.5-2-1 1.4-0.6 2-2-5.2-5.9-13-7.5-1 1.7-2 3-1.9 0.6-3.5 2-1.5-0.6-1.5-2-1.8 1.1-3 3-0.1-1.5-1-3.5 4-0.5 8-1-1.4-1.1-0.5-2.5 3.4-0.3 7 0-0.1-5.6 3-2 0.8-2.2-1.5-3.5 0.8-0.8 1-2-3.5-8.8-9-16.5-2-0.5-4-1-1.3 1.2-1 3-5.1-0.1-7-5-1.8-1.2-4-1.5 9.4-2.8 0-3.5 1-0.5 2-1-0.9-1.4-1-3-0.3-5.6 3-2 1.4-0.7 3-1 6.3 2.5 13 3.5 1.3 2.4 4 3-3.6 1.5 1 2-1.8 1 0 1.5 1.8-1.1 3-3 0.1 2.7 1 5.5-10.8-2.3-2 4.5-1.8 0.1-4 1 1.8 1.2 4 1.5-2.2 0.6-1.5 2.5 0.5-0.5 1-1 1.3 2.7 3.5 2-1 1.8-0.5 4-1.9-1.3-3.5 1 2.5 3 5 6-1.8 0.9-4 0.5 1.3 1.3 2.5 2.5 5.4 0.4 10.5-1.5 1.8 0.6 3 2-2.6 1-5-0.5-1.5 0.7 0 2 3.4 0.4 7.5 2 0.8-0.5 1.5-1-2-1.5-2-4 1.5 0 3 0 1.8 3.4 3.5 7 4.6-6.1 2.5 1-2.9 0.1-5.5-1-1.5 0.6-1.5 2-2.4-1.5-5-0.5 1.4 0.4 2 1.5z"/><path fill-rule="evenodd" class="aZ" d="m306.5 119.5q2.6 1.1 3 4-2.6-1.1-3-4z"/><path fill-rule="evenodd" class="b0" d="m110.5 119.5q7.5 0.6 15 1 12 0.8 24 1-3.5 1-7.5 1-13.7-0.9-27.5-1.5-2.3-0.3-4-1.5z"/><path fill-rule="evenodd" class="b1" d="m177.5 118.5q1.4 2.6 1 6-3 0-6 0-3.8-1.1-7-3 5.9 1 12 1 0-2 0-4z"/><path fill-rule="evenodd" class="b2" d="m263.5 78.5q1.5 1 3 2 1.5-0.3 2 1 1.1 2.6 4 3 1.6 3 5 4 1.5 0.5 2 2 3.1 4.6 8 7 0.5 1.5 2 2 2.4 4.9 7 8 1.4 3.9 5 6 1.5 0.5 2 2 0.4 2.9 3 4 0.4 2.9 3 4 0.4 2.9 3 4 0.4 2.9 3 4-0.1 2.3 2 3-0.1 2.3 2 3 1 5.6 3 11-1.9 0.1-2.5 2-4.7-4.5-6.5-11-5.1-4.2-2 0.5-3.3 2-6.5 1.5-2.8-3.9 2-6 3.8 2 1.5-2 1.3-1.1 3-1.5-2.7-2.2-6-0.5 0.3-3.3-2.5-5-0.5 1-1 2-4.2-2.4-6.5 2-1.4-1.8-1-4 4.5-0.1 1-1-4.3 1.5-9-0.5 1.8-1.3 0-2.5-1.6 1.7-2.5 4-1.5 0.7-3.5 0.5 1.8 1 0 1.5-1-1-2-2-1.8 1.8-3.5 0-1.9 3.6-1-1 2.4-1.4 1.5-3-2.7 2.9-6 2 1.5 1.3 3 2.5-0.8 0.3-1.5 0.5-3.4-2.2-6.5-5-3.8 1.5 0 2.5-1.9 0.7-4 0.5 0 1.5 0 3 6.8-0.3 1 2-2.7-2.9-6-1 1.7 1.1 2 3-1 1.2-2.5 2 0.1-1.9-0.5-3-1.2 1.8-1.5 4-1.9-4-5.5-3 5.8 1.6 0 2.5 7.5 0.6 0.5 2.5-2.7-2.8-6.5-1.5 1.4 0.7 3 0.5 0 2.5 2 4-1.1 0.6-1.5 2-0.8-0.8-2-1-2.5 3.2-6.5 4-1.1 0.2-2-0.5 1.8-0.7 2.5-2.5 1.9 1.9 3.5-0.5-3.6-1 0-3-1.6-2.4-3.5-0.5-1.3-1.3-2.5-2.5 2.1-0.6 3-2.5-2.7-1.2-5-3 0.6 2.1-2.5 3-3-0.7-6.5 0 0 2 0 4-2.1-3.6-5.5-4-1.7 5-6.5 6 1.6-3.7 4-7 6.4-3.2 13-6.5 6.4-6.2 14-10.5 2.6 0.2 5-1 8.8 2.2 0 4 1.7 1.1 3.5 2 1.6-1.5 3.5-0.5-0.7 0.6-1 1.5 1.4 3.9 5 6 1.9-2.6-1-4.5 6 0.3 0-3 0.8-0.8 1.5-1.5 2.4 3.7 4.5-0.5-1.4-0.9-2.5 0.5-0.6-2.1-1.5-4 0.5-0.5 1-1 3.3 2.4 7 4 1.1 1.9 1 4 7-1 13.5 0 0.3 0.5 0.5 1-2.1 1.1-4 2.5 0.5 0.3 1 0.5 1.5-2 3 0 2.6-2.1 2-4.5 4.2-0.2 8 1-1-0.5-2-1 2-2.8-0.5-1.5-0.6-1.4-2-2-4.8 2.2-10 3-0.7-1.9 1.5-2.5-1.7-1.5 1-2-5.7-2.9 0-5.5 4 1.5 0 3 2.4 1.7 5 0.5-2.2-1.1-2-3.5 2.1-0.1 4 1-0.5-2.6 1.5-5 3.2 5.5 2.5-2-3.6 0.2-5.5-3-3.5 2.3-7.5 1.5 1.5-0.5 3-1-5.7-7-14-3 1.6 2.6 0.5 5.5-4.5-2.9-6-8-1.6 1.8-3.5 3 1.8-4.1 5.5-7 0.7-3 0.5-6-0.5-4-1-8z"/><path fill-rule="evenodd" class="b3" d="m309.5 123.5q2.6 1.1 3 4-2.6-1.1-3-4z"/><path fill-rule="evenodd" class="b4" d="m43.5 115.5q1.9 3.5-1 6.5 1.5 0.5 3 1-2.3 2.5-5 1 4.2 3.3-0.5 1.5-0.8 0.8-1.5 1.5 1.9 0.6 2 2.5-4.4-0.6-3 3-1.2 1.4-3 2-1.5-2-4-2 0.2-2.5 2-4 2.9-1.5 3-5 3.2-2.4 5-6 1.1-1.6 3-2z"/><path fill-rule="evenodd" class="b5" d="m110.5 119.5q1.7 1.2 4 1.5 13.8 0.6 27.5 1.5 4 0 7.5-1 8 0 16 0 3.2 1.9 7 3 1.4 1.2 3 2.5-0.8 0.6-1 1.5-1.5 0.5-2 2-3.2-0.4-6 1 12 1.5 24 1 7.7 1.7 16 2 1.1 1.2 3 1.5-3.8 2.1-9 4-1.1 1.9-2.5 3.5-1.2-3.3-3.5 0-1 2.9-1.5 6-1.1 0.9-2.5 1.5 1.4 0.4 2 1.5-2.7 0.1-4 2.5 1.9 2 4 4 10.8 1.2 21-0.5 1.5 0 3 0 1.5-0.3 2 1-0.5 0-1 0-10.4 4.7-22 5.5 4.5 7.3 13 6.5 1.1 1.2 3 1.5-21.7 2.5-35.5-14.5-0.4 8.5-3.5 16-4 0.4-5.5 4 0.6 13 0 26-2.1 1.6-3 4-0.7-3-0.5-6-6.3 0.5-5.5 7-0.3-10.8-1.5-21 0-0.5 0-1 0.3-4.5-2-8-0.4-3.3-3-5 0.1-5.3-2.5-10-8.1 6.9-16.5 13.5 0.5 0.5 1 1-3.3 0.2-6-2 4.4-0.3 5.5-4.5 1.1-7.4 3.5-14.5-0.3-0.8-0.5-1.5-2 1.6-4.5 2-3.9-0.3 0-1.5-1-0.5-2-1 1-1.5 0-3.5 0-2.3-2-3.5-16.6-10.3-24-28.5 3.2-1.5 7-1z"/><path fill-rule="evenodd" class="b6" d="m238.5 109.5q-5 3.5-8 9-3.1 1.9-6 4.5-9.7 3.7-20 6-1 1-2 2-15.3 1.2-30-0.5 0.5-1.5 2-2 8.7-3.9 18-6 1 0 2 0 0.1 1.5-1 2.5-4 1-8 2-1.3 1.5-1 3.5 7 0.2 14-0.5 2.7-1 4-3.5 5.9 1 10-3 14.7-0.3 22-13 1.9-1.1 4-1z"/><path fill-rule="evenodd" class="b7" d="m35.5 123.5q-0.1 3.5-3 5 0.4-3.3 3-5z"/><path fill-rule="evenodd" class="b8" d="m230.5 118.5q-1.1 2.4-3 4.5-10.2 5.8-22 7 0.7 0.6 1 1.5-7.9 1.5-16 1-12 0.5-24-1 2.8-1.4 6-1 14.7 1.7 30 0.5 1-1 2-2 10.3-2.3 20-6 2.9-2.6 6-4.5z"/><path fill-rule="evenodd" class="b9" d="m312.5 127.5q2.6 1.1 3 4-2.6-1.1-3-4z"/><path fill-rule="evenodd" class="ba" d="m315.5 131.5q2.1 0.7 2 3-2.1-0.7-2-3z"/><path fill-rule="evenodd" class="bb" d="m236.5 145.5q0.4 1.9 0 3.5 6.7 2.9 11 7-3.1 1.9-3 5.5-1.5 0-3 0-1.6-1.4-4-1-0.1 4 2 7.5-1.1 1-1 2.5-4.6 1.2-9 0 2-0.5 4-1-0.8-1-2-1.5 3.1-0.5 6 0-0.7-1.7-2.5-2.5-1.7 1-3.5 0.5 2-1 0-2 1.6-0.7 3 0.5 1.2-1.1 2-2.5-4-0.1-7.5-3.5 0.2 5.5-3.5 2.5 3.6-1.5-1-2 2.7-0.5 1-2 0.8-0.8 1.5-1.5 1.3 2.3 3.5 1.5-2.2-4.9-7-7.5 0.8-0.5 1.5-1 2.1 1.7 4.5 1.5-2-2.1 1-3-0.8-0.8-1.5-1.5-5.6 4.1-1.5-1.5-1-0.5-2-1 4.2-1.4 6.5 2.5 0.8-2.5-1.5-4 1.7-0.7 3-1-2.8-1.4-1-3.5-1.9-0.5-3 1.5-2.5-5-6-1 0-2 0-4 3.5-0.7 6.5 0 3.1-0.9 2.5-3 2.3 1.8 5 3-0.9 1.9-3 2.5 1.3 1.3 2.5 2.5 1.9-1.9 3.5 0.5-3.6 2 0 3-1.6 2.4-3.5 0.5-0.7 1.8-2.5 2.5 0.9 0.7 2 0.5z"/><path fill-rule="evenodd" class="bc" d="m52.5 111.5q-1.1 3.9-3 7.5 1.4 0.9 2.5-0.5 1.8 2 4.5 3-1.3 1.1-3 1.5 1.7 0.4 3 1.5-0.5 0.5-1 1-1.4-1.2-3-0.5 3.3 1.9 6 4.5 3.1-1.9 4 2-3-1.9-6 0-1.1 2.2-2 4.5 3.6 2.8 8 2-2.9-0.5-5-2.5 0.3-0.9 1-1.5 3.3-0.6 6.5-1.5 4.5 0.8 2.5 4.5 0.8 0.8 1.5 1.5 0.3-3.1 1.5-6 2.8 1.1 2 3 1.8-1.7 0-3.5 2.4-2.8 2 1.5 4.1-0.4 7 2.5-1 1.6-1.5 3.5-1.1-1.4-2.5-0.5 3.2 1.8 7 2-4.8 0.9-1 3-3.1 0.5-1 2.5-1.7 1.7-2.5-1-0.5 1-1 2-3.2-1.1-6.5-2-1.3 3.3 2 5.5-1.9 1.5-4 1-2-1.5 0-3-0.8-1-2-1.5-2.8 1.1-2 3-1-0.8-1.5-2-1.5 2.3-1.5 5-1.5 0-3 0-0.2 2.4 2 3.5-3 1-6 0-2.9-3.9-7-6.5-1.7 2.8-2.5 6-1-1.8-1.5 0 3 2.9 4.5 0 2 2.1 4 1 2.9 4.5-2.5 2-2 3.2-5 1-0.5 0.5-1 1 1.3 1.1 3 1.5-1 1.6-1.5 3.5-0.6-0.7-1.5-1-1.9 1.3-3 3-4.1-0.3-8-1.5 1-0.5 2-1-3.9-0.6-7-2.5 2.8-0.3 4-3 4.8 2.1 9.5 4 0.8-0.8 1.5-1.5-1.7-1.6-4-2 1.3-2.5-1.5-0.5-0.9-1.4 0.5-2.5-5.7-2.3-0.5-5.5 1.7 1.4 3 0 1 1 2 2 0.7-2.6 2.5-2-2.6-4.5-4-9.5 2-1 4 0-2.9 1.2-1 3.5 3-2.7 7-3.5-1.2-2.5-3-0.5-1.2-1.1-2-2.5 2-1 3-3-2-1.2-2.5-3.5-2.6-2.3-5.5-2.5 2.5-1.1 1.5-3.5-1.2 2-3.5 2-0.1-1.9-2-2.5 0.8-0.8 1.5-1.5 4.7 1.8 0.5-1.5 2.7 1.5 5-1-1.5-0.5-3-1 2.9-3 1-6.5 3.8-1.7 6.5-6 1.1 1.3 2.5 2z"/><path fill-rule="evenodd" class="bd" d="m322.5 148.5q5.5 6.5 7 15-1.8 5 0 10-2.1 0.2-4-0.5 2.5-1.1 1.5-3.5-2.9 2.3-6.5 3.5 2.2 0.3 4 1.5-1.8-0.6-2.5 2-3-2.6-5.5-5.5 3-2.8 7-4-3.9-2.5-8-3 1 0.5 2 1-3 1.5-6 3 0.7 0.6 1 1.5-7.9 4.5 1 1.5 2-1 0-2 2.1-0.7 3.5-2.5-0.7 3.6-3.5 6.5 0.5 1.5 1 3-6.3-2-13-1.5-0.6-1.5-2-0.5 0.5 0.5 1 1-3.8 0.8-4.5 4.5-0.6-1.8-2-3-1.5 2-3 0-0.6 5.5-2.5 0.5 1.2-3.5 4-1.5 0.9-4.9 3-7-1.6 0.2-3-0.5 1.8-0.7 2.5-2.5 0.5 1.2 1.5 2 1.3-1.5 3-2.5-1-0.5-2-1 7.4-0.2 1-3.5-2.3 0-3.5 2-0.7-1.6 0.5-3 3.2-1.5 7-1-0.3 6.8 2 1 0.5 0.3 1 0.5-1.6 2.1-0.5 4.5 0.5-2.4 2.5-4-1.3-2.2-4-2.5 1-0.5 2-1-3.2-0.4-5-3 1.2-0.5 2-1.5-1.2-1.8-2.5 0-3-3.3-6.5-6 1.3-1.1 3-1.5-2.8-3.8-3.5-8.5-0.6 6.5-2 1-0.7 1.4-0.5 3-2.7 0-5 1.5 1.7 1.4-0.5 2.5-1.1-2.5-3.5-1.5 1.7 1.2 3.5 2.5 3.3-0.2 6.5 0-3 2-6 1-2.2 4.4 2 2 5.9 2.2-1 2-5.5-0.2-7-5.5-2.4-2.2-5-0.5-0.4-1.1-1-2.5-3.5-1.5-7-3 2.1-0.7 3.5-2.5 1.6 1.5 3.5 0.5 1.8-4.3-2.5-2.5-1.1-2.5-3.5-1.5 1.5 1.6 0.5 3.5-1.3-3-4 0-4.1-1.3-0.5-2.5-0.5-0.5-1-1-2.6 0.8-5-0.5-0.3-1.9-2-3 3.3-1.9 6 1 5.8-2.3-1-2 0-1.5 0-3 2.1 0.2 4-0.5-3.8-1 0-2.5 3.1 2.8 6.5 5 0.8-0.3 1.5-0.5-1.5-1.3-3-2.5 3.3 0.9 6-2 0.9 1.6-1.5 3-0.9 4.6 1 1 1.7 1.8 3.5 0 1 1 2 2 1.8-0.5 0-1.5 2 0.2 3.5-0.5 0.9-2.3 2.5-4 1.8 1.2 0 2.5 4.7 2 9 0.5 3.5 0.9-1 1-0.4 2.2 1 4 2.3-4.4 6.5-2 0.5-1 1-2 2.8 1.7 2.5 5 3.3-1.7 6 0.5-1.7 0.4-3 1.5 2.3 4-1.5 2-4.8 2.1-2 6 3.2 0.5 6.5-1.5-3.1-4.7 2-0.5 1.8 6.5 6.5 11 0.6-1.9 2.5-2z"/><path fill-rule="evenodd" class="be" d="m317.5 134.5q2.1 0.7 2 3-2.1-0.7-2-3z"/><path fill-rule="evenodd" class="bf" d="m30.5 132.5q-0.4 4.7-4 7 0.9-4.2 4-7z"/><path fill-rule="evenodd" class="bg" d="m53.5 101.5q2 1.2 3 3.5 12.8 6.5 27 8 10.1 3.5 20 7.5 7.4 18.2 24 28.5 2 1.2 2 3.5-10.7 8.3-24 6 0-0.5 0-1-0.6-1.1-2-1.5 2.6-1 5 0.5 0-1.4 1.5-2 2.6 1.1 5.5 1 2.1-7.1-2.5-1-1.7-3.6-3.5-7-1.5 0-3 0 0 2.5 2 4-0.8 0.5-1.5 1-4.1-1.6-7.5-2-1.5-1.3 0-2 2.4 1.5 5 0.5-1.2-1.4-3-2-5.1 1.9-10.5 1.5-1.3-1.3-2.5-2.5 2.2 0.4 4-0.5-2.5-3-5-6 1.6-2.3 3.5-1-0.5-2.2 0.5-4-2.2 0.7-3.5-2-0.5 0.5-1 1-0.7-1.9 1.5-2.5-2.2-0.3-4-1.5 2.2-0.9 4-1-8.8-6.8 2-4.5-0.9-2.8-1-5.5-1.2 1.9-3 3-1.8-0.5 0-1.5-4.6-0.5-1-2-2.7-0.6-4-3-6.7-1-13-3.5-1.6 0.3-3 1-3.3-3.6-3 2-1.5-2.2-4-1.5-1.1 3.1-1.5 6.5-1-3.3-4.5-3.5 2.7-1.6 1.5-4.5-1-1.9-1.5 0-1.4-0.7-2.5-2-2.7 4.3-6.5 6-1.9 0.4-3 2 0-1 0-2 0.6-1.8 2-3 6-5 11-11z"/><path fill-rule="evenodd" class="bh" d="m215.5 132.5q-2.4 3.3-4 7-1 0-1 1-7.8 7.8-18 12-0.6-1.1-2-1.5 1.4-0.6 2.5-1.5 0.5-3.1 1.5-6 2.3-3.3 3.5 0 1.4-1.6 2.5-3.5 5.2-1.9 9-4-1.9-0.3-3-1.5 4.8 0.1 9-2z"/><path fill-rule="evenodd" class="bi" d="m24.5 143.5q-3.1 8.8-7 17 1.5-9.5 7-17z"/><path fill-rule="evenodd" class="bj" d="m29.5 163.5q-8.5-5.7 1-6-1.7-1.6-4-2.5 3.5-2.4 2-6 1.8-1.5 3-3.5-1.2-1.8-2.5 0-1-3.6-3 0 0.2-2.9 0.5-6 3.6-2.3 4-7 2.5 0 4 2 1.8-0.6 3-2-1.4-3.6 3-3 2.3 0 3.5-2 1 2.4-1.5 3.5 2.9 0.2 5.5 2.5 0.5 2.3 2.5 3.5-1 2-3 3 0.8 1.4 2 2.5 1.8-2 3 0.5-4 0.8-7 3.5-1.9-2.3 1-3.5-2-1-4 0 1.4 5 4 9.5-1.8-0.6-2.5 2-1-1-2-2-1.3 1.4-3 0-5.2 3.2 0.5 5.5-1.4 1.1-0.5 2.5 2.8-2 1.5 0.5 2.3 0.4 4 2-0.8 0.8-1.5 1.5-4.7-1.9-9.5-4-1.2 2.7-4 3z"/><path fill-rule="evenodd" class="bk" d="m257.5 132.5q2.4 1.3 5 0.5 0.5 0.5 1 1-3.6 1.2 0.5 2.5 2.7-3 4 0 1-1.9-0.5-3.5 2.4-1 3.5 1.5 4.3-1.8 2.5 2.5-1.9 1-3.5-0.5-1.4 1.8-3.5 2.5 3.5 1.5 7 3 0.6 1.4 1 2.5 2.6-1.7 5 0.5 1.5 5.3 7 5.5 6.9 0.2 1-2-4.2 2.4-2-2 3 1 6-1-3.2-0.2-6.5 0-1.8-1.3-3.5-2.5 2.4-1 3.5 1.5 2.2-1.1 0.5-2.5 2.3-1.5 5-1.5-0.2-1.6 0.5-3 1.4 5.5 2-1 0.7 4.7 3.5 8.5-1.7 0.4-3 1.5 3.5 2.7 6.5 6 1.3-1.8 2.5 0-0.8 1-2 1.5 1.8 2.6 5 3-1 0.5-2 1 2.7 0.3 4 2.5-2 1.6-2.5 4-1.1-2.4 0.5-4.5-0.5-0.3-1-0.5-2.3 5.8-2-1-3.8-0.5-7 1-1-1.7-0.5-4-2.3 4.1-3.5-0.5 3.6-0.7 0.5-2.5-3 2-5 5-0.5-1-1-2-0.9 2.9 1.5 5-0.9 1.9-1.5 4-5.3-4.8-11.5-1.5 1.5 0.5 3 1-0.5 0.5-1 1 1.5 1 3 0 0.6-1.4 1-2.5 1.5 0.8 3 1.5-1.4 1.7 1 3-4-1-8 0.5-4.8-6.3-6.5 1 4.2-3.9 6 2 0.5-1.2 1.5-2 2.2 3.5-2 4-4.3-2.4-9-4 2.1-2-1-2.5 0.8-0.8 1.5-1.5 1.8 1.8 3.5 0-1.3-1.1-3-1.5 12-1 0-2 3-0.5 6-1-2.6-0.5-5-1.5-0.3-3.9-4-7 1.9-1.2 5-1.5-2.7 0.8-1 2.5 3.3 0.9 6.5 2 0.5-0.5 1-1 0.7 1.4 0.5 3-1.6-0.2-3 0.5 4.4 1.7 9 1-4.6-0.7-5-5.5-2-2-4 0-2.7-6.7-10-5.5 1.7 1.4-0.5 2.5-0.6-2.2-2.5-1.5 1.3 1.5 1 3.5-3.7 0.6-2-2-3.4-1.9-7-3 0.3-1.8-1-3 0.3 1.5-1.5 3-1.2-2-3.5-2.5 3.9-2.1 0-3.5-2-1.5-2-4-1.6 0.2-3-0.5 3.8-1.3 6.5 1.5 7-1.9-0.5-2.5 5.8-0.9 0-2.5 3.6-1 5.5 3 0.3-2.2 1.5-4 0.6 1.1 0.5 3 1.5-0.8 2.5-2z"/><path fill-rule="evenodd" class="bl" d="m26.5 139.5q-0.3 3.1-0.5 6 2-3.6 3 0 1.3-1.8 2.5 0-1.2 2-3 3.5 1.5 3.6-2 6 2.3 0.9 4 2.5-9.5 0.3-1 6 3.1 1.9 7 2.5-1 0.5-2 1 3.9 1.2 8 1.5-5.4 2.3-10-2-0.3 1.3-1 3-3.8-2.2-8-3.5 6.4-0.3 2-4.5-2.3-1.4-5-1-0.5 5.7-1.5 11-1-0.8-1.5-2 1.9-3.7 0-7 0-1 0-2 3.9-8.2 7-17 0.2-2.5 2-4z"/><path fill-rule="evenodd" class="bm" d="m210.5 140.5q-1.4 4.7-6 7-1.4 1.8-1 4-4.4 0.1-8 2.5-1 1.5-2 3 9.8 2.1 20 1.5-10.2 1.7-21 0.5-2.1-2-4-4 1.3-2.4 4-2.5 10.2-4.2 18-12z"/><path fill-rule="evenodd" class="bn" d="m129.5 152.5q1 2 0 3.5 1 0.5 2 1-3.9 1.2 0 1.5-7.5 5.2-15.5 10-0.8-0.3-1.5-0.5 3.3-1.9 6-4.5-9.4-0.7-18-4 1.1-1.4 3-1 13.3 2.3 24-6z"/><path fill-rule="evenodd" class="bo" d="m319.5 137.5q5.7 11.4 11.5 23 1.7 5.4 2.5 11-2.3-3.9-4-8-1.5-8.5-7-15-2-5.4-3-11z"/><path fill-rule="evenodd" class="bp" d="m62.5 114.5q0.1 1.6 1 3-1 0.5-2 1 9.4 0.7 0 3.5 2.2 0.3 4 1.5 1.9 4.9 7 5-0.3-1.8 1-3 2 0.5 4 1 5.5 7.7 9 16.5-0.2 1.2-1 2 2.3 1.3 1.5 3.5-3.1-3.6-3 2-3.6-0.3-7 0-0.9 1.4 0.5 2.5-4 0.5-8 1 0.9 2 1 3.5 1.2-1.9 3-3 0 1.4 1.5 2 1.6-1.4 3.5-2 0.6 2.8 3 4.5-0.5 0.8-1 1.5-1.4-3.9-4-1.5 2.4 1.9 5 3.5-3.3 2.8 2 1.5-1.8-1 0-1.5 1.4 0.9 3 1-1.9 3.5 2 5.5-1.7 1.6-4 2 3 3 5-0.5 0.7 1.8 1 3.5-4.2 1.7-6.5 5.5-0.8-1.5-1.5-3-5.6-2.1-11-1.5-3.5-1.3-6-4-7.4-3.7-13.5 1.5-0.5-1.2-1.5-2-0.7 1.7-1 3-1.5-6.3-6-2 2.1 2-1 2.5 4.3 0.8 8 3 1.3 1.1 2 2.5-0.6 2.1-3 2.5 0.5 4.5 5 5-4.3 2.6-7-1-1.5-1-3 0 6.8 3.4 4 10.5-4.9 0.3-1-2-2.6-3.8-4.5-8-2.5 1.2-0.5 3-1.9 3.1-1 6 1.3-1.5 2.5-3-0.7 2.5 0.5 5-2.9 2-0.5 4 0.5-0.5 1-1 1.8 2.3 1 5-0.5-0.5-1-1 0.1 1.9-0.5 3-5.3-1-5.5-6 1.3 1.8 2.5 0-3.8-4.4-5 1.5-1.9 1-3.5-0.5-0.6 1.4-1.5 2.5 3.1 2.3 4 6-2.4 1-3.5-1.5-1 1-2 2-4.4-1.2-8.5-3.5-0.9-2.8-3-5 1.7-4.6-3-6.5-0.7-4-0.5-8 3.4 3.4 4 7 1.8-1.3 3.5-2.5-1.9-0.5-3.5-1.5-0.8-3.2-2.5-6 0-4.2 1-8.5-2.4-1.6-2-4.5 1.9-4.8 2-10 1.9 3.3 0 7 0.5 1.2 1.5 2 1-5.3 1.5-11 2.7-0.4 5 1 4.4 4.2-2 4.5 4.2 1.3 8 3.5 0.7-1.7 1-3 4.6 4.3 10 2 1.1-1.7 3-3 0.9 0.3 1.5 1 0.5-1.9 1.5-3.5-1.7-0.4-3-1.5 0.5-0.5 1-1 3 2.2 5-1 5.4 2.5 2.5-2-2 1.1-4-1-1.5 2.9-4.5 0 0.5-1.8 1.5 0 0.8-3.2 2.5-6 4.1 2.6 7 6.5 3 1 6 0-2.2-1.1-2-3.5 1.5 0 3 0 0-2.7 1.5-5 0.5 1.2 1.5 2-0.8-1.9 2-3 1.2 0.5 2 1.5-2 1.5 0 3 2.1 0.5 4-1-3.3-2.2-2-5.5 3.3 0.9 6.5 2 0.5-1 1-2 0.8 2.7 2.5 1-2.1-2 1-2.5-3.8-2.1 1-3-3.8-0.2-7-2 1.4-0.9 2.5 0.5 0.5-1.9 1.5-3.5-2.9-2.9-7-2.5 0.4-4.3-2-1.5 1.8 1.8 0 3.5 0.8-1.9-2-3-1.2 2.9-1.5 6-0.8-0.8-1.5-1.5 2-3.7-2.5-4.5-3.2 0.9-6.5 1.5-0.7 0.6-1 1.5 2.1 2 5 2.5-4.4 0.8-8-2 0.9-2.3 2-4.5 3-1.9 6 0-0.9-3.9-4-2-2.7-2.6-6-4.5 1.6-0.7 3 0.5 0.5-0.5 1-1-1.3-1.1-3-1.5 1.7-0.4 3-1.5-2.7-1-4.5-3-1.1 1.4-2.5 0.5 1.9-3.6 3-7.5 0.5-1.9 1.5 0 1.2 2.9-1.5 4.5 3.5 0.2 4.5 3.5 0.4-3.4 1.5-6.5 2.5-0.7 4 1.5z"/><path fill-rule="evenodd" class="bq" d="m246.5 140.5q3.9 1.4 0 3.5 2.3 0.5 3.5 2.5 1.8-1.5 1.5-3 1.3 1.2 1 3 3.6 1.1 7 3-1.7 2.6 2 2 0.3-2-1-3.5 1.9-0.7 2.5 1.5 2.2-1.1 0.5-2.5 7.3-1.2 10 5.5 2-2 4 0 0.4 4.8 5 5.5-4.6 0.7-9-1 1.4-0.7 3-0.5 0.2-1.6-0.5-3-0.5 0.5-1 1-3.2-1.1-6.5-2-1.7-1.7 1-2.5-3.1 0.3-5 1.5 3.7 3.1 4 7 2.4 1 5 1.5-3 0.5-6 1 12 1 0 2 1.7 0.4 3 1.5-1.7 1.8-3.5 0-0.8 0.8-1.5 1.5 3.1 0.5 1 2.5 4.7 1.6 9 4 4.2-0.5 2-4-1 0.8-1.5 2-1.8-5.9-6-2 1.7-7.3 6.5-1 4-1.5 8-0.5-2.4-1.3-1-3-1.5-0.8-3-1.5-0.4 1.1-1 2.5-1.5 1-3 0 0.5-0.5 1-1-1.5-0.5-3-1 6.2-3.3 11.5 1.5 0.6-2.1 1.5-4-2.4-2.1-1.5-5 0.5 1 1 2 2-3 5-5 3.1 1.8-0.5 2.5 1.2 4.6 3.5 0.5-0.5 2.3 0.5 4-1.2 1.4-0.5 3 1.2-2 3.5-2 6.4 3.3-1 3.5 1 0.5 2 1-1.7 1-3 2.5-1-0.8-1.5-2-0.7 1.8-2.5 2.5 1.4 0.7 3 0.5-2.1 2.1-3 7-2.8-2-4 1.5 1.9 5 2.5-0.5 1.5 2 3 0 1.4 1.2 2 3 0.7-3.7 4.5-4.5-0.5-0.5-1-1 1.4-1 2 0.5-0.1 1.9-2 2.5 3.3 2.5 2 6-0.8 0.3-1.5 0.5-3.2-5.1-7.5-1 5.1 1.6 8 4 3.6-2.9 5.5-7 1 4 2 0 0.4 2.4 1.5 4.5-1.5 0.5-3 1 1.9 0.5 3.5 1.5 0.5-1 1-2 0 3 0 6 2.5 0.5 5 1 0.7-1.9-1.5-2.5 5.8 0.5 10 5-4.3 3.5 1 4.5 1.1-1.7 2-3.5 9 1.8 1.5-4.5-0.9 3.7-2.5 0-4.8 1.5-5.5-4-0.9 3.3-3.5 0.5 2.3-0.9 4-2.5 5-3 11-3-1.4 4.9-1 9.5 2.4 4.9 2.5 10.5 0.3-2.3 1.5-4 0.5 1 1 2 0.3 3-2 5 0.5 1 1 2-2.3 1.1-2.5 4-2.3-2.5-5.5-3 0.3 1.8-1 3-1.1-2-3-1.5 0.8 2.6 0 4.5-1.4-1.2-2-3 1.2-1.4 0.5-3-2.5 1.9-3.5 5-9.9-1.7 0 1.5-4.9 2.2-9-0.5-3.2 2.5-3.5-1 0.5 0.5 1 1 2.1-1.1 4.5-1.5-1.9-0.7-4-0.5-2-4.3-6-7.5-2.5-0.2-5 1 3.1 0.8 0.5 1.5-4.5-2.2-2.5-6.5-1.9-0.7-2.5 1.5-0.3-1.9-1.5-3-1.1-1.4-3-1 0-1.5 0-3 3.4 1.4 3.5-3 5 3.9 11.5 4 1.1 5.5 4 0 2.8 3.9 7 6.5 9.1 1.1 17.5 4.5 0.5-1.5 2.5-2.5-7.2-1.2-14-4 1-1 2-2-5.5 0.4-11 0-0.5-0.5-1-1 1.5-0.5 3-1-3.7-0.6-6-3.5-1.1 1.2-2.5 2-7.4-1.6-14-5-0.5-1.9-1.5-3.5 1.9 0.1 3-0.5-1.2-1.3-3-1 0.3-1.8-1-3-0.2 2.1-0.5 5-2.7-2-4-5-5.8 0.6-6.5 3-1.2-1.9-3-3.5 2.9 0.5 6 0-3-0.7-5.5-2.5-1.7 1.8-1.5-1-1.7-1.6-4-2.5 4.6-0.5 1-2-3.5-1-7 0 3.6 1.2-0.5 2.5-0.5-1-1-2-1.9 2.9-4.5 1-0.8-1.9-2-3.5 3.4-1.7-1-3 2.9-0.3 5-0.5-1.4-5.2-4.5-1-2-2.4-1.5-5-5.6 4-11 0 1.5 0 3 0-0.1-3.6 3-5.5-4.3-4.1-11-7 0.4-1.6 0-3.5 4-0.8 6.5-4 1.2 0.2 2 1 0.4-1.4 1.5-2z"/><path fill-rule="evenodd" class="br" d="m223.5 137.5q3.5-4 6 1 1.1-2 3-1.5-1.8 2.1 1 3.5-1.3 0.3-3 1 2.3 1.5 1.5 4-2.3-3.9-6.5-2.5 1 0.5 2 1-4.1 5.6 1.5 1.5 0.8 0.8 1.5 1.5-3 0.9-1 3-2.4 0.2-4.5-1.5-0.8 0.5-1.5 1 4.8 2.6 7 7.5-2.2 0.8-3.5-1.5-0.8 0.8-1.5 1.5 1.7 1.5-1 2 4.6 0.5 1 2 3.7 3 3.5-2.5 3.5 3.4 7.5 3.5-0.8 1.4-2 2.5-1.4-1.2-3-0.5 2 1 0 2 1.8 0.5 3.5-0.5 1.8 0.8 2.5 2.5-2.9-0.5-6 0 1.2 0.5 2 1.5-2 0.5-4 1 4.4 1.2 9 0 1.8 1.6-1 2.5 1.2 2.3 3.5 3.5-0.6 3.9-4.5 2-2-2.5-4-5-3.2 1.5-6 3.5 2.4 1.3 1 3-2.5 0.7-5 0.5-2.8-0.9-3.5-4-2.2 10.1-12.5 9.5 1.7 0.4 3 1.5-2 2.2-5 2 0.7-3.7-2-6-0.5 0.3-1 0.5 1.3 1 2 2.5-1.3 0.3-3 1 2 1.1 1.5 3-0.5-0.5-1-1-2 3.7-6.5 3.5-6.2 3.7-11 7 1 0.5 2 1-1.8 1.4-2.5 3.5-1.2 5.8 0.5 11 2.4 2 1.5 5-6.1 7.3-12.5 14-4.1-0.8-5.5 3-0.3-13.6 2-27 1.3 2.1 1.5-0.5-0.7-1.7-1-3.5 6.2-2.7-1-3-0.2-11.5 0.5-23 2.1-2.8 3.5-6 3.1-7.5 3.5-16 13.8 17 35.5 14.5-1.9-0.3-3-1.5 3.1-0.3 6-1.5-1.7-1.6-4-2 1.7-2.8 5-2.5 0.3-3.3 2-6 0.5 0 1 0 1.8-1.5 4-2.5-3.4-0.6-6 1.5-1.5 0-3 0-10.2 0.6-20-1.5 1-1.5 2-3 3.6-2.4 8-2.5-0.4-2.2 1-4 4.6-2.3 6-7 0-1 1-1 4.8-1 6.5-6 3.4 0.4 5.5 4z"/><path fill-rule="evenodd" class="bs" d="m217.5 159.5q-1.7 2.7-2 6-3.3-0.3-5 2.5 2.3 0.4 4 2-2.9 1.2-6 1.5-8.5 0.8-13-6.5 11.6-0.8 22-5.5z"/><path fill-rule="evenodd" class="bt" d="m218.5 159.5q-0.5-1.3-2-1 2.6-2.1 6-1.5-2.2 1-4 2.5z"/><path fill-rule="evenodd" class="bu" d="m241.5 161.5q5.4 4 11 0-0.5 2.6 1.5 5 3.1-4.2 4.5 1-2.1 0.2-5 0.5 4.4 1.3 1 3 1.2 1.6 2 3.5 2.6 1.9 4.5-1 0.5 1 1 2 4.1-1.3 0.5-2.5 3.5-1 7 0 3.6 1.5-1 2 2.3 0.9 4 2.5-3.9-1.5-8 0.5 2.5 0.5 5 1-2 1.5 0 3-4 1 0 2-1.9 1-3.5-0.5-1.5 1-3 2-6.2-6-1.5 2-0.8 1.2-2.5 0-1.9 0.5-1 2 0.5-0.5 1-1 1.7 1.9 4 3 1-3.8 2.5 0-1 0.5-2 1-3.4-1.5-7-2-0.4-2.9 2-4.5-1.9-1.4-4-2.5 1.2-1.4 0.5-3-2.2 2.3-4.5 1 1.9-2.8-1-5 1.9 0.8 4.5 0 1.5 2 3 4 1.2-2.2-0.5-4-5.2-3.8-8-9.5-3.8-0.5-7 1-0.1-3.2-3-6 1.4-0.7 3-0.5z"/><path fill-rule="evenodd" class="bv" d="m329.5 173.5q1.9-0.1 3 1.5-8.3 0.1-14 7 2.4 0.4 3 2.5-1.7 1.6-4 2.5 2.6 2.8 3.5-0.5 0.7 5.5 5.5 4 1.6 3.7 2.5 0 7.5 6.3-1.5 4.5-0.9 1.8-2 3.5-5.3-1-1-4.5-4.2-4.5-10-5 2.2 0.6 1.5 2.5-2.5-0.5-5-1 0-3 0-6-0.5 1-1 2-1.6-1-3.5-1.5 1.5-0.5 3-1-1.1-2.1-1.5-4.5-1 4-2 0-1.9 4.1-5.5 7-2.9-2.4-8-4 4.3-4.1 7.5 1 0.8-0.3 1.5-0.5 1.3-3.5-2-6 1.9-0.6 2-2.5 6.7-0.5 13 1.5-0.5-1.5-1-3 2.8-2.9 3.5-6.5-1.4 1.8-3.5 2.5 2 1 0 2-8.9 3-1-1.5-0.3-0.9-1-1.5 3-1.5 6-3-1-0.5-2-1 4.1 0.5 8 3-4 1.2-7 4 2.5 2.9 5.5 5.5 0.7-2.6 2.5-2-1.8-1.2-4-1.5 3.6-1.2 6.5-3.5 1 2.4-1.5 3.5 1.9 0.7 4 0.5z"/><path fill-rule="evenodd" class="bw" d="m106.5 201.5q-0.5 0-1 0 1.9-1.5 0-3-6-1.7-12-3.5 2.3-1.3 1.5-3.5-2.3 1.7-4 3-1-4.4-4.5-7-5.4 1.4-11 1 0.8-2.7 1.5-5-2.5-2.8-5.5-5-1.7 1.7 1 2.5-4.5 1.3-4-3.5-1.5 0-3 0 0.2 1.6-0.5 3-0.2-3.3-2.5-5.5 2.2-0.6 1.5-2.5-2.1 1.4-4.5 2.5 3.8 2.3-1 2.5-0.4-2.9 2-4.5-2.9-2.9-4.5 0.5-1-1.8-1.5 0 1.2 1.3 3 1 0 2 0 4 1.8-0.3 3 1-2.1 0.2-5 0.5 5.7 2.1 0 3 3.9 2.4 8 4.5-1.7 2.2-4.5 3-3.4-2.6-3-6-1.9 1.3-3.5-1 1-1.5 2-3-0.7-1.2-2-1-0.7-1.4-2-2.5-3.7-2.2-8-3 3.1-0.5 1-2.5 4.5-4.3 6 2 0.3-1.3 1-3 1 0.8 1.5 2 6.1-5.2 13.5-1.5 2.5 2.7 6 4 5.4-0.6 11 1.5 0.8 1.5 1.5 3 2.3-3.8 6.5-5.5-0.3-1.7-1-3.5-2 3.5-5 0.5 2.3-0.4 4-2-3.9-2-2-5.5 4.2-2.2 3 2 2.4 1.2 5 1.5 2.3 3.3 4.5 6.5 4.4-2.5 0.5-5.5 0.5-0.8 1-1.5 3.7 2 7 4.5 2.5 1 5 0-3.1-0.8-0.5-1.5 2.2 0.6 4 2 9.7-2.8 6.5 6 2.8 1.2 4 4-2.2 0-5 1 1.5 1.3 0 2-2-2-4 0-0.5-0.5-1-1 1.3-1.1 3-1.5-0.5-0.5-1-1 7-0.3 1-3 2-2 0-4-2.9-1.2-6-1.5 0.3 1.8-1 3-2.3-1.4-5-2-4.2 0.5-2 4 0.9-0.3 1.5-1 1.2 2.7 3.5 4.5 0.8 3.1 2 6-5.7 2.2-0.5 5.5 2.3 1.8 4.5 0 2.7 1.5 4.5 4 0.9-5.8 2.5 0-6 3.7-12.5 6-0.2-2.4 1.5-4.5-0.6-1.4-2-2 1-0.5 2-1-2-0.5-4-1 0.7-0.6 1-1.5-2.5-1-5-2 0.8-1 2-1.5-2.7-0.4-4.5-2.5-0.5 0.5-1 1-5.4-5 2.5-4.5-5.7-2.9-12-4.5-0.9-1.7-1-3-1.3 1.2-1 3-1.6-0.2-3 0.5 5.2 1.4 10 4-3 0.5-6 1 1.5 0.5 3 1 1 2.4 2.5 4.5 2.1-1.6 4.5-0.5 2.3 3.1 6 4.5 1.8 1.7 0 3.5 5.4 3 0 4.5z"/><path fill-rule="evenodd" class="bx" d="m17.5 160.5q0 1 0 2-0.1 5.2-2 10-3.2 9.7-5 20-0.8 8.3-1 17 0.1 7.6-1 15-0.5 0-1 0 0.5-16.2 1.5-33 2.7-16.1 8.5-31z"/><path fill-rule="evenodd" class="by" d="m329.5 163.5q1.7 4.1 4 8 0.8 13.1 2 26-1.2 1.7-1.5 4-0.1-5.6-2.5-10.5-0.4-4.6 1-9.5-6 0-11 3-0.6-2.1-3-2.5 5.7-6.9 14-7-1.1-1.6-3-1.5-1.8-5 0-10z"/><path fill-rule="evenodd" class="bz" d="m15.5 172.5q-0.4 2.9 2 4.5-1 4.3-1 8.5 1.7 2.8 2.5 6 1.6 1 3.5 1.5-1.7 1.2-3.5 2.5-0.6-3.6-4-7-0.2 4 0.5 8-1.3-0.2-2 1 3.7 3 0 6 0.4-2.9-2-6 1.8-2.9-1-5 1.8-10.3 5-20z"/><path fill-rule="evenodd" class="bA" d="m154.5 179.5q2.3 3.5 2 8-1.9-3.6-2-8z"/><path fill-rule="evenodd" class="bB" d="m222.5 180.5q2.6 1.1 5.5 2 8.4-0.5 17 0-1.4-3.4 2.5-5 2.3 2.6 1 5.5 7.9 5.1-1 4.5-14.5-1.7-29 0-7.8 2.7-16 4.5-0.8 0.6-1 1.5-2.5 0.2-4 2-7.4 2.9-11 10-4 4-3 10-1.7-5.2-0.5-11 0.7-2.1 2.5-3.5-1-0.5-2-1 4.8-3.3 11-7 4.5 0.2 6.5-3.5 0.5 0.5 1 1 0.5-1.9-1.5-3 1.7-0.7 3-1-0.7-1.5-2-2.5 0.5-0.3 1-0.5 2.7 2.3 2 6 3 0.2 5-2-1.3-1.1-3-1.5 10.3 0.6 12.5-9.5 0.7 3.1 3.5 4z"/><path fill-rule="evenodd" class="bC" d="m333.5 171.5q1.2 1.1 1.5 3 0.5 10.5 1 21 1.2 1.9 1.5 4-0.5 0-1 0-0.5-1-1-2-1.2-12.9-2-26z"/><path fill-rule="evenodd" class="bD" d="m287.5 194.5q-1.6-1.3 0-2.5-6.6-2.4-11-7.5 0.7-2.4 6.5-3 1.3 3 4 5 0.3-2.9 0.5-5 1.3 1.2 1 3 1.8-0.3 3 1-1.1 0.6-3 0.5 1 1.6 1.5 3.5 6.6 3.4 14 5 1.4-0.8 2.5-2 2.3 2.9 6 3.5-1.5 0.5-3 1 0.5 0.5 1 1 5.5 0.4 11 0-1 1-2 2 6.8 2.8 14 4-2 1-2.5 2.5-8.4-3.4-17.5-4.5-4.2-2.6-7-6.5-2.9 5.5-4 0-6.5-0.1-11.5-4-0.1 4.4-3.5 3z"/><path fill-rule="evenodd" class="bE" d="m105.5 201.5q-10.1-5.9-22-5-11.2-0.5-22 2 0.5 1 1 2-1.1-0.2-2 0.5 0.6 2.3 0 5 1.4 0.7 3 0.5-4.1 2.4-9 1.5 4.6-0.5 1-2 2-1 4-2-3.6-2 0-3-1.8-2.3-3.5-4.5-0.5 1.5-1 3-3.4-1.3-6.5-3 2.8-7.1-4-10.5 1.5-1 3 0 2.7 3.6 7 1-4.5-0.5-5-5 2.4-0.4 3-2.5 1.3-0.2 2 1-1 1.5-2 3 1.6 2.3 3.5 1-0.4 3.4 3 6 2.8-0.8 4.5-3-4.1-2.1-8-4.5 5.7-0.9 0-3 2.9-0.3 5-0.5-1.2-1.3-3-1 0-2 0-4-1.8 0.3-3-1 0.5-1.8 1.5 0 1.6-3.4 4.5-0.5-2.4 1.6-2 4.5 4.8-0.2 1-2.5 2.4-1.1 4.5-2.5 0.7 1.9-1.5 2.5 2.3 2.2 2.5 5.5 0.7-1.4 0.5-3 1.5 0 3 0-0.5 4.8 4 3.5-2.7-0.8-1-2.5 3 2.2 5.5 5-0.7 2.3-1.5 5 5.6 0.4 11-1 3.5 2.6 4.5 7 1.7-1.3 4-3 0.8 2.2-1.5 3.5 6 1.8 12 3.5 1.9 1.5 0 3z"/><path fill-rule="evenodd" class="bF" d="m10.5 192.5q2.8 2.1 1 5 2.4 3.1 2 6 0.8 3.2 4 4.5-2.4-0.9-4 1 3.2 0.8 6 2.5-0.3 0.5-0.5 1-3.3-2.7-6.5-0.5-0.2 2.7 0 5.5-2.4-3.5-3-8 0.2-8.7 1-17z"/><path fill-rule="evenodd" class="bG" d="m83.5 196.5q11.9-0.9 22 5 0.5 0 1 0 2.2 2.8 5 5-3.3-0.3-5 2.5 0.9 2.8 1 5.5-0.5 1.5-2 2-2.5-2.1-3-5.5 2.4-8.9-6-2.5-1.7-4.6 1-9-8.1-2.5-2 2.5-0.9 3.3-3.5 5.5-0.8-0.3-1.5-0.5 2-1.5 0-3-2.5-0.7-5-0.5 0 2 0 4 4.7 2.3 10 3 0.3 2.5-1 4.5 7.7-1 9 6.5-7.3-0.9-14-3.5-5-4.8-7-11.5-2.5-1.3-5-2.5 2.2-0.3 4-1.5-4.4-1.7-9-3 3.8-1.9 7.5 0 1.5-2 3.5-3z"/><path fill-rule="evenodd" class="bH" d="m48.5 196.5q0.3 2.8-2 4.5 2.2 3.1 2.5 6.5 0.7-1.9 0.5-4 3.7-0.6 2 2 1.2 1.1 2 2.5-1.7 2.1-1.5 4.5 1.4 1.2 2 3 1.1-1.4 2.5-0.5-1.9 1.4-4 2.5 1.8 1.2 4 1.5-8.3 2.5-4-4-5.2-2.2-1-6-3.1-0.1-6 1.5-1-0.8-1.5-2-4.2 3.7-7.5 8.5 3.1 0.8 0.5 1.5-2.8-4.3-7.5-2 2.5 1.7 4.5 4 1.6-1.5 3.5-0.5-2.3 2.5-3 6 1.7 0.4 3 1.5-1.7 0.7-3 1 2.3 3.7 6 2-2.7-2.9-2-6 3.3 1.6 7 2-0.7 3.8-3 7-1.3-1.5-2 0 2.7 1 5 2.5-6.3 1.9-10-3.5-5.4-2-10-5 0.7 0.1 1-0.5-3.9-3.2-8-5.5 0.2-1.6-0.5-3-0.5 0.5-1 1-1.6-2.4-4.5-2-0.2-2.8 0-5.5 3.2-2.2 6.5 0.5 0.3-0.5 0.5-1-2.8-1.7-6-2.5 1.6-1.9 4-1-3.2-1.3-4-4.5 3.7-3 0-6 0.7-1.2 2-1 4.7 1.9 3 6.5 2.1 2.2 3 5 4.1 2.3 8.5 3.5 1-1 2-2 1.1 2.5 3.5 1.5-0.9-3.7-4-6 0.9-1.1 1.5-2.5 1.6 1.5 3.5 0.5 1.2-5.9 5-1.5-1.2 1.8-2.5 0 0.2 5 5.5 6 0.6-1.1 0.5-3 0.5 0.5 1 1 0.8-2.7-1-5-0.5 0.5-1 1-2.4-2 0.5-4-1.2-2.5-0.5-5-1.3 1.5-2.5 3-0.9-2.9 1-6-2-1.8 0.5-3 1.9 4.2 4.5 8-3.9 2.3 1 2z"/><path fill-rule="evenodd" class="bI" d="m48.5 196.5q3.1 1.7 6.5 3 0.5-1.5 1-3 1.8 2.3 3.5 4.5-3.6 1 0 3-2 1-4 2 3.6 1.5-1 2 4.9 0.9 9-1.5 6 5.5 10 13 1.7 1.1 3.5 2 0.7 4 2.5 7.5-1.9 0.3-3 1.5-6.3-0.1-12 2.5 1.4 0.4 2 1.5-6.5-0.2-12 3-1.6-9.1-9-3.5 1.2 2.3 3.5 3.5 0.1 3.1-3 0-0.8 1.5-1.5 3-6.2 0.5-11-3-1 0.5-2 1-0.3-1.3-1-3-1 2.5-2 5-7-4.5-11-10 3.2-2 5.5 1 2.4-2-0.5-4-1 0.5-2 1-2.2-2.2-3-5-0.1-0.7 0.5-1 3.6 2.8 7.5 5 4.6 3 10 5 3.7 5.4 10 3.5-2.3-1.5-5-2.5 0.7-1.5 2 0 2.3-3.2 3-7-3.7-0.4-7-2-0.7 3.1 2 6-3.7 1.7-6-2 1.3-0.3 3-1-1.3-1.1-3-1.5 0.7-3.5 3-6-1.9-1-3.5 0.5-2-2.3-4.5-4 4.7-2.3 7.5 2 2.6-0.7-0.5-1.5 3.3-4.8 7.5-8.5 0.5 1.2 1.5 2 2.9-1.6 6-1.5-4.2 3.8 1 6-4.3 6.5 4 4-2.2-0.3-4-1.5 2.1-1.1 4-2.5-1.4-0.9-2.5 0.5-0.6-1.8-2-3-0.2-2.4 1.5-4.5-0.8-1.4-2-2.5 1.7-2.6-2-2 0.2 2.1-0.5 4-0.3-3.4-2.5-6.5 2.3-1.7 2-4.5z"/><path fill-rule="evenodd" class="bJ" d="m336.5 199.5q0.5 0 1 0 0 1 0 2 0.3 6.6-1 13-2.1-0.3-4-1.5 3.1-2.5 3-6.5-0.5-1-1-2 2.3-2 2-5z"/><path fill-rule="evenodd" class="bK" d="m62.5 200.5q2.4 1.7 4.5 4 8.4 15.9 23.5 25-1.6 1.4-4 1-5 0-10 0 1.1-1.2 3-1.5-1.8-3.5-2.5-7.5-1.8-0.9-3.5-2-4-7.5-10-13-1.6 0.2-3-0.5 0.6-2.7 0-5 0.9-0.7 2-0.5z"/><path fill-rule="evenodd" class="bL" d="m151.5 174.5q2.6 1.7 3 5 0.1 4.4 2 8 0 0.5 0 1 0.5 10.5-1 21-1.7-1.6-3 0 3.1 3.2 3 8-1 10-2 20-1.9 8.2-2 17 0 7 0 14-1.8 0.3-3-1-6.2-9-15-15.5-7.9-4.4-15-9.5 5.3 1.5 10.5 4 4-1.2 7.5-0.5-0.5 0.5-1 1 3.5 2.4 2 6 6 5.7 12.5 8.5-0.8-15.8 2.5-31.5-1.2-3.9-4-7 1-0.5 2-1-3-1.5-6-3 3.8-1.5 0-3.5 2.1-1.1 4-2.5-4.6-0.5-1-2-1-1-2-2 3 0.2 6 1.5-0.5-4.2 3-6.5-0.2-14.3-3-29.5z"/><path fill-rule="evenodd" class="bM" d="m12.5 217.5q2.9-0.4 4.5 2 0.5-0.5 1-1 0.7 1.4 0.5 3 4.1 2.3 8 5.5-0.3 0.6-1 0.5-3.9-2.2-7.5-5-0.6 0.3-0.5 1-1.4-3.9-5-6z"/><path fill-rule="evenodd" class="bN" d="m83.5 196.5q-2 1-3.5 3-3.7-1.9-7.5 0 4.6 1.3 9 3-1.8 1.2-4 1.5 2.5 1.3 5 2.5 2 6.7 7 11.5 6.7 2.6 14 3.5-1.3-7.5-9-6.5 1.3-2 1-4.5-5.3-0.7-10-3 0-2 0-4 2.5-0.2 5 0.5 2 1.5 0 3 0.8 0.3 1.5 0.5 2.6-2.2 3.5-5.5-6.1-5 2-2.5-2.7 4.4-1 9 8.4-6.4 6 2.5 0.5 3.4 3 5.5 1.5-0.5 2-2-0.1-2.7-1-5.5 1.7-2.8 5-2.5 7.1 5.1 8 14 1.7 10.6-6.5 17-0.7 1.6 0.5 3-4.7 1.2-10 1.5-2.2 6.5-8 10 0.7 0.6 1 1.5-3.3 1.9-6 4.5 0.4 1.4 1 2.5-4.2 3.4-9 6-7.6 2.2-15.5 2-14.7-1.5-29.5-3 5.3-9.6 12-18 1.1-0.2 2 0.5-1.3 1.1-2 2.5-1.4 2.4-1 4.5 4.6 3.6 10.5 4.5 5.2-1.6 10-4 1 1 2 2 4-4.4 9.5-3 3.2-1.9 7-2.5 0.7-4 4.5-5.5 1-3.4 2.5-6.5-4-1-8-2-0.7-0.6-1-1.5 4.5-2.3 9-5-1.6-1.8-4-2-15.1-9.1-23.5-25-2.1-2.3-4.5-4-0.5-1-1-2 10.8-2.5 22-2z"/><path fill-rule="evenodd" class="bO" d="m290.5 198.5q1.2 1.1 1.5 3 0.6-2.2 2.5-1.5-2 4.3 2.5 6.5 2.6-0.7-0.5-1.5 2.5-1.2 5-1 4 3.2 6 7.5 2.1-0.2 4 0.5-2.4 0.4-4.5 1.5-0.5-0.5-1-1 0.3 3.5 3.5 1 4.1 2.7 9 0.5-9.9-3.2 0-1.5 1-3.1 3.5-5 0.7 1.6-0.5 3 0.6 1.8 2 3 0.8-1.9 0-4.5 1.9-0.5 3 1.5 1.3-1.2 1-3 3.2 0.5 5.5 3 0.2-2.9 2.5-4 0.1 4-3 6.5 1.9 1.2 4 1.5 0 0.5 0 1-2.1-0.2-4 0.5 1.1 4.3-1 8.5-3.1-1.6-1-4.5-1.2-0.5-2-1.5 5-3.4 0-4.5 2.2-0.6 1.5-2.5-4.2 2.7-6.5 7 1.5 1 3 2-6.9 4.4-12.5-1-2.6 0.7 0.5 1.5-1.7 4.5-4 0.5-1.6 3.7-2.5 0 0.5 4.5 5.5 5.5-3.3 1.2-5.5-1.5-1.1 1.4-2.5 0.5 1.4-1.1 0.5-2.5-2.5-2.3-5.5-4-0.9 1.6 1 3.5-1 1-2 0-1.3-3.3-3-6.5 1.8-1.2 4-1.5-3.5-0.5-7-1-2.1-2.9-4.5-5.5-2.1 2.5-5.5 1.5 2.1 1.3-0.5 1.5-4.5-5.3-10-2-1.5-0.6-1.5-2-2 3.8 2.5 5 2.2-3 5.5-0.5-3.8 1.5 0 3.5-1.3 3.7-5 2.5 3.4-1.5-1-2.5 0 1.4-1.5 2-2.7-1.4-5.5-0.5 3.4 1.2 7 2-2 1-3 3 2.7 0.3 5-1.5 1 0.5 2 1-2.2 1.1-3.5 3-1.6-1.5-3.5-0.5 2.7 0.5 1 2 1 2.5 3 4.5-0.3 0.9-1 1.5 3.9-0.3 8 1.5 2.2 2-1 2.5 5.1 0.5 4 5.5 5.9 0.3 0 1.5 1.6 1.3 3 2.5-1 1.7-0.5 4-2.4-2-3.5-5-2.3 0.6-5 0.5 1.2 0.5 2 1.5-2.3 0.6-5 0.5 4.1 1.8-0.5 2.5-2.5-1-4.5 0-0.6-1.1-0.5-3-4 2.3-7-1-0.5 2.5-1 5-1.3-3-2.5-6-8.2-1.4-16-4 0-2.5 2-4-2-1.5-2-4 2.4 1.4 5 3 5.7-3-1-5 0.5-0.5 1-1 2.4-1.6 4.5 0 0.5 2 1 4 1.9-7.8 4.5 0-3.8 1-2 4-0.8 0.5-1.5 1-1.8-1.2-3-3-0.5 1.9-1.5 3.5 3 1 5 3.5 1-1.5 2-3 1.2 1.9 3 3 1.7-1.7-1-2.5 0.9-1.1 1.5-2.5 1.7 2.3 4.5 2-0.8-3.3-3-6 4.6-3 1-6.5 2.7-1.7 6-2-3.4-2.9-6.5 0.5-1.2-2.2 0.5-4 2.4 1.2 5 1 0-2 0-4-2.5 0.2-5-0.5 2-1.5 0-3 2 0 4 0-1-1.6-1.5-3.5-1.1 3.2-2.5 0.5 0.8-1.4 2-2.5-1.5-1.3-2.5-3-0.3 3.1-1.5 6-0.3-3.9-3.5 0-1.2-3.4-2-7-3 3.3 0.5 5.5-1.9 0.5-3.5 1.5-0.5-1.5-1-3-0.5 0.5-1 1 2.1-3.8 5.5-7.5 2 0.5 4 1-3.9-3.1-7-7 2.4-1.1 4.5 0.5 2.1-4.3 4.5-1-5.4 1.3-0.5 3 3.9-1.4 1.5-5 5.5-0.8 10.5-3 3 2.9-1.5 3.5 4 1 0 2 5.7 0.9 7 6.5 2.4-1.5 4 1.5-1.6 0.7-3-0.5-4.2 4.3 1.5 2 2.3 0.8 4.5 2 5.1-4 9.5 1 0.8-0.8 1.5-1.5-3.4-1.7-7-2.5 0.3-2.8-2-4.5 1.9-0.6 2-2.5z"/><path fill-rule="evenodd" class="bP" d="m9.5 209.5q0.6 4.5 3 8 3.6 2.1 5 6 0.8 2.8 3 5 1-0.5 2-1 2.9 2 0.5 4-2.3-3-5.5-1 4 5.5 11 10 1-2.5 2-5 0.7 1.7 1 3 1-0.5 2-1 4.8 3.5 11 3-1.8 1.8 0 3.5-7-1.5-1 2.5-1.7 1.1-3.5 2-2-3.2-5-1-2.2-5.1-7.5-5.5-3.7-5.1-9-2 1.8 1.3 0 2.5-2.8-4.1-3 1-2.6-1.9-1-4.5-3.3-1-1-3.5-0.8-2.1-3-2-0.6-4.6-2-9 1.1-7.4 1-15z"/><path fill-rule="evenodd" class="bQ" d="m241.5 161.5q-1.6-0.2-3 0.5 2.9 2.8 3 6 3.2-1.5 7-1 2.8 5.7 8 9.5 1.7 1.8 0.5 4-1.5-2-3-4-2.6 0.8-4.5 0 2.9 2.2 1 5 2.3 1.3 4.5-1 0.7 1.6-0.5 3 2.1 1.1 4 2.5-2.4 1.6-2 4.5 3.6 0.5 7 2 1-0.5 2-1-1.5-3.8-2.5 0-2.3-1.1-4-3-0.5 0.5-1 1-0.9-1.5 1-2 1.7 1.2 2.5 0-4.7-8 1.5-2 1.5-1 3-2 1.6 1.5 3.5 0.5-4-1 0-2-2-1.5 0-3-2.5-0.5-5-1 4.1-2 8-0.5-0.2 2.8 1.5 1 2.5 1.8 5.5 2.5-3.1 0.5-6 0 1.8 1.6 3 3.5 4.4 5.1 11 7.5-1.6 1.2 0 2.5 0 1.5 0 3 1.9-0.4 3 1-0.1 1.9-2 2.5 2.3 1.7 2 4.5 3.6 0.8 7 2.5-0.8 0.8-1.5 1.5-4.4-5-9.5-1-2.2-1.2-4.5-2-5.7 2.3-1.5-2 1.4 1.2 3 0.5-1.6-3-4-1.5-1.3-5.6-7-6.5 4-1 0-2 4.5-0.6 1.5-3.5-5 2.2-10.5 3 2.4 3.6-1.5 5-4.9-1.7 0.5-3-2.4-3.3-4.5 1-2.1-1.6-4.5-0.5 3.1 3.9 7 7-2-0.5-4-1-3.4 3.7-5.5 7.5 0.5-0.5 1-1 0.5 1.5 1 3 1.6-1 3.5-1.5-3.5-2.2-0.5-5.5 0.8 3.6 2 7 3.2-3.9 3.5 0 1.2-2.9 1.5-6 1 1.7 2.5 3-1.2 1.1-2 2.5 1.4 2.7 2.5-0.5 0.5 1.9 1.5 3.5-2 0-4 0 2 1.5 0 3 2.5 0.7 5 0.5 0 2 0 4-2.6 0.2-5-1-1.7 1.8-0.5 4 3.1-3.4 6.5-0.5-3.3 0.3-6 2 3.6 3.5-1 6.5 2.2 2.7 3 6-2.8 0.3-4.5-2-0.6 1.4-1.5 2.5 2.7 0.8 1 2.5-1.8-1.1-3-3-1 1.5-2 3-2-2.5-5-3.5 1-1.6 1.5-3.5 1.2 1.8 3 3 0.8-0.5 1.5-1-1.8-3 2-4-2.6-7.8-4.5 0-0.5-2-1-4-2.1-1.6-4.5 0-0.5 0.5-1 1 6.7 2 1 5-2.6-1.6-5-3-0.9 0.2-1.5 1-0.7-1.8-2.5-2.5 3.2-1.1 0.5-2.5-2.8 1.9-6 3-1.3-2.3-3.5-1.5 1.9 1.7 3 4 3.5 0.3 6.5 0.5 0.6 1.4 1.5 2.5-2 0-4 0 1.8 1.3 0 2.5-2.5-2.3-5.5-4-1.9-8.2-7-2-2.7-2.4-3.5-6-1.1-1.2-2.5-2 1.1 3.9 3.5 7.5-1 1-2 0-1.3-2.4-3-4.5-2.5 2.3-4.5 5-0.6-2.7-3-4-0.8 2.5 1.5 4-2.6-0.5-5 1.5 2.2 1.2 1 2.5-4.9-0.7-9-3.5 1-0.5 2-1-2.7-2-5-4.5 0.2 3.2 0 6.5-3 1-5-1.5-1.2 0.5-2 1.5 2.2 1.6 2.5 4.5 0.5-1 1-2 2.2 2.3 5.5 2.5-2.7 0.5-1 2 2 0 4 0-3.8 3.5 2 4.5-3.6 3.2 2 3.5 0.9 1.1 1.5 2.5 0.8-0.8 2-1 2.6 2.7 5.5 5-0.5 0.5-1 1-3.9-3.7-9-3.5 4.6 0.5 1 2 3.4 2.3 7 4-0.8 1-2 1.5 0-1.4-1.5-2-1.3 0.4-2.5 1-2-3-4-6 1.2-1.4 0.5-3-3.6-1.7-6.5-4.5 3.4-1.5-1-2.5-1.8 0.6-3 2 2.7 5-3 5 0.3 1.8-1 3-1.9-3.3 1-6-2.7-3.8-7-6-1 1-2 2-1.4-1.7-2.5 0-0.7-3.6-2.5-0.5 1.1 3.2 3.5 1.5 3.3 2.3 6.5 4.5-1 0.5-2 1 6.1 5.4-1 1.5 0.6 1.9-2 3.5-1.9-0.1-3 0.5 0.5 1.5 2 2 5.5-1.1-0.5 2-2-1.3-4.5-1 0.4 5.4-3 1-2.5-3.4-4-7 6-8.8 12.5-17 3.6-3.9 8.5-6-2.1-4.9 3-7 1.7 0.5 2.5 2 0.5-2 1-4 23.1 4.1 38.5-13.5 4.9 0.6 3-4.5 6-8 12-16 8.9 0.6 1-4.5 1.3-2.9-1-5.5-3.9 1.6-2.5 5-8.6-0.5-17 0-2.9-0.9-5.5-2 2.5 0.2 5-0.5 1.4-1.7-1-3 2.8-2 6-3.5 2 2.5 4 5 3.9 1.9 4.5-2-2.3-1.2-3.5-3.5 2.8-0.9 1-2.5-0.1-1.5 1-2.5-2.1-3.5-2-7.5 2.4-0.4 4 1z"/><path fill-rule="evenodd" class="bR" d="m99.5 157.5q0.7 2.1 3 2 8.6 3.3 18 4-2.7 2.6-6 4.5 0.8 0.3 1.5 0.5 8-4.8 15.5-10 2.5-0.4 4.5-2 0.3 0.8 0.5 1.5-2.4 7.1-3.5 14.5-1.1 4.2-5.5 4.5 2.7 2.2 6 2-0.5-0.5-1-1 8.4-6.6 16.5-13.5 2.6 4.7 2.5 10 2.8 15.2 3 29.5-3.5 2.3-3 6.5-3-1.3-6-1.5 1 1 2 2-3.6 1.5 1 2-1.9 1.4-4 2.5 3.8 2 0 3.5 3 1.5 6 3-1 0.5-2 1 2.8 3.1 4 7-3.3 15.7-2.5 31.5-6.5-2.8-12.5-8.5 1.5-3.6-2-6 0.5-0.5 1-1-3.5-0.7-7.5 0.5-5.2-2.5-10.5-4-1 0-1-1 0.1-1.5-1-2.5 2.2-3.4 6-7-2-5.8-3-11.5-0.9-8.9-8-14-2.8-2.2-5-5 5.4-1.5 0-4.5 1.8-1.8 0-3.5-3.7-1.4-6-4.5-2.4-1.1-4.5 0.5-1.5-2.1-2.5-4.5-1.5-0.5-3-1 3-0.5 6-1-4.8-2.6-10-4 1.4-0.7 3-0.5-0.3-1.8 1-3 0.1 1.3 1 3 6.3 1.6 12 4.5-7.9-0.5-2.5 4.5 0.5-0.5 1-1 1.8 2.1 4.5 2.5-1.2 0.5-2 1.5 2.5 1 5 2-0.3 0.9-1 1.5 2 0.5 4 1-1 0.5-2 1 1.4 0.6 2 2-1.7 2.1-1.5 4.5 6.5-2.3 12.5-6-1.6-5.8-2.5 0-1.8-2.5-4.5-4-2.2 1.8-4.5 0-5.2-3.3 0.5-5.5-1.2-2.9-2-6-2.3-1.8-3.5-4.5-0.6 0.7-1.5 1-2.2-3.5 2-4 2.7 0.6 5 2 1.3-1.2 1-3 3.1 0.3 6 1.5 2 2 0 4 6 2.7-1 3 0.5 0.5 1 1-1.7 0.4-3 1.5 0.5 0.5 1 1 2-2 4 0 1.5-0.7 0-2 2.8-1 5-1-1.2-2.8-4-4 3.2-8.8-6.5-6-1.8-1.4-4-2-2.6 0.7 0.5 1.5-2.5 1-5 0-3.3-2.5-7-4.5-0.5 0.8-1 1.5 3.9 3-0.5 5.5-2.3-3.3-4.5-6.5-2.6-0.3-5-1.5 1.2-4.2-3-2-1.6-0.1-3-1-1.8 0.5 0 1.5-5.3 1.3-2-1.5-2.6-1.6-5-3.5 2.6-2.4 4 1.5 0.5-0.8 1-1.5-2.4-1.7-3-4.5 1-1.3 2-3 7.8 1.6 13 7.5-0.6 1.4-2 2 1 0.5 2 1-3.6 1.6 1 1.5-1.3-7.2 5-6z"/><path fill-rule="evenodd" class="bS" d="m99.5 157.5q3 0 6 0 0 0.5 0 1-1.9-0.4-3 1-2.3 0.1-3-2z"/><path fill-rule="evenodd" class="bT" d="m119.5 220.5q1 5.7 3 11.5-3.8 3.6-6 7 1.1 1 1 2.5-2-0.5-4-1-1.2-1.4-0.5-3 8.2-6.4 6.5-17z"/><path fill-rule="evenodd" class="bU" d="m331.5 224.5q0 0.5 0 1-3.4 4.4-5 8.5 1.5 1.5 3 3-1 0.5-2 1 3.6 3.2 0 6 0.1 1.1 1 1.5-1.5 2.5-3 5-1.8 1-4 2 1.5 1.3 0 2-2.8-0.9-5.5-2-0.9 1.4 0.5 2.5-3.9 2-8 2 4.9-2.4 1.5-6.5-1.6-1-3.5-1.5 1.4-1.7-1-3 2.5-0.8 4 1.5 1.1-2.5 3-4.5-0.9-1.1-1.5-2.5-0.4 2.3-2 4-1.5-2.5-3-5-3.5 0.5-7 1-0.3-0.5-0.5-1 2.3-1.4 4-3.5-0.3-0.8-0.5-1.5-1.8 3.5-5.5 2.5 5.9-3.6 0-7 1.5-0.5 3-1-1.3-1.5-1-3.5-1.5 0-3 0 0-1.5 0-3-4.6-0.1-1 1.5 0.4 2.1-1 4.5 0 2.3 2 3.5-4 1.5 0 3-1.8 5-7 4.5 0-1.5 0-3-3.8-0.8-7-3-4.1-1.8-8-1.5 0.7-0.6 1-1.5-2-2-3-4.5 1.7-1.5-1-2 1.9-1 3.5 0.5 1.3-1.9 3.5-3-1-0.5-2-1-2.3 1.8-5 1.5 1-2 3-3-3.6-0.8-7-2 2.8-0.9 5.5 0.5 1.5-0.6 1.5-2 4.4 1 1 2.5 3.7 1.2 5-2.5-3.8-2 0-3.5-3.3-2.5-5.5 0.5-4.5-1.2-2.5-5 0 1.4 1.5 2 5.5-3.3 10 2 2.6-0.2 0.5-1.5 3.4 1 5.5-1.5 2.4 2.6 4.5 5.5 3.5 0.5 7 1-2.2 0.3-4 1.5 1.7 3.2 3 6.5 1 1 2 0-1.9-1.9-1-3.5 3 1.7 5.5 4 0.9 1.4-0.5 2.5 1.4 0.9 2.5-0.5 2.2 2.7 5.5 1.5-5-1-5.5-5.5 0.9 3.7 2.5 0 2.3 4 4-0.5-3.1-0.8-0.5-1.5 5.6 5.4 12.5 1-1.5-1-3-2 2.3-4.3 6.5-7 0.7 1.9-1.5 2.5 5 1.1 0 4.5 0.8 1 2 1.5-2.1 2.9 1 4.5z"/><path fill-rule="evenodd" class="bV" d="m76.5 230.5q5 0 10 0-6.7 1.4-14 2-2.7 1.7-6 2-0.6-1.1-2-1.5 5.7-2.6 12-2.5z"/><path fill-rule="evenodd" class="bW" d="m7.5 224.5q0.5 0 1 0 1.4 4.4 2 9-0.8 6.2 3 11-0.3 0.9-1 1.5 3.2 1.4 4 4.5 1 2.5 2 5 0.3 3.2-1 6-5.7-10-9-21-1.5-7.7-1-16z"/><path fill-rule="evenodd" class="bX" d="m331.5 225.5q1.3-0.2 2 1-0.9 5.9-3 11.5 2.5 2.2 2 5.5-3-0.5-4 2-0.9-0.4-1-1.5 3.6-2.8 0-6 1-0.5 2-1-1.5-1.5-3-3 1.6-4.1 5-8.5z"/><path fill-rule="evenodd" class="bY" d="m10.5 233.5q2.2-0.1 3 2-2.3 2.5 1 3.5-1.6 2.6 1 4.5 1.5 3.2 1 7-0.8-3.1-4-4.5 0.7-0.6 1-1.5-3.8-4.8-3-11z"/><path fill-rule="evenodd" class="bZ" d="m235.5 203.5q1.9 5.1-3 4.5-15.4 17.6-38.5 13.5-0.5 2-1 4-0.8-1.5-2.5-2-5.1 2.1-3 7-4.9 2.1-8.5 6-6.5 8.2-12.5 17-2.4 0.5-3 3-1.6 6.4-0.5 13 2.7 1.2 4.5 3.5-1.6 5.4-5 9.5 0-1.5 0-3 0.8-2.8 3-5-1.2-2.4-4-2-0.5-10.6 1.5-21 14.7-14.7 27.5-31.5 12.7 1.8 25-2 11.1-5.8 20-14.5z"/><path fill-rule="evenodd" class="c0" d="m336.5 215.5q-1.2 18-3 36-2.5 0-5 0-1.1-1.4-3-1 1.5-2.5 3-5 1-2.5 4-2 0.5-3.3-2-5.5 2.1-5.6 3-11.5-0.7-1.2-2-1 0-0.5 0-1 2.1-4.2 1-8.5 1.9-0.7 4-0.5z"/><path fill-rule="evenodd" class="c1" d="m72.5 232.5q-1.7 2.4 2 2.5-5.5 1.2-9 5.5 2.4 0.7 4.5-2 2.4 2.3 0.5 5-4.2 0.6-7 3.5 0.5 0.8 1 1.5 6.2-0.9 9.5-6 2.5 0.5 5 1 3.2-2.9 7.5-1.5-2.3 3.8-3 8.5-3.3 3.9-5.5-1-0.6 1.4-1.5 2.5-5.1 1.2-9.5 3.5-2.5-1.4-5.5-1-0.3-2.5 1-4.5-3.5 0.2-7 0-3.4-4.9-2.5 0.5-1.5-1-3.5 0 0.7-1.4 2-2.5-0.9-0.7-2-0.5 7.3-8.4 17-13 3.3-0.3 6-2z"/><path fill-rule="evenodd" class="c2" d="m90.5 229.5q2.4 0.2 4 2-4.5 2.7-9 5 0.3 0.9 1 1.5 4 1 8 2-1.5 3.1-2.5 6.5-3.8 1.5-4.5 5.5-3.8 0.6-7 2.5-5.5-1.4-9.5 3-1-1-2-2-4.8 2.4-10 4-5.9-0.9-10.5-4.5-0.4-2.1 1-4.5 2-1 3.5 0-0.9-5.4 2.5-0.5 3.5 0.2 7 0-1.3 2-1 4.5 3-0.4 5.5 1 4.4-2.3 9.5-3.5 0.9-1.1 1.5-2.5 2.2 4.9 5.5 1 0.7-4.7 3-8.5-4.3-1.4-7.5 1.5-2.5-0.5-5-1-3.3 5.1-9.5 6-0.5-0.8-1-1.5 2.8-2.9 7-3.5 1.9-2.7-0.5-5-2.1 2.7-4.5 2 3.5-4.3 9-5.5-3.7-0.1-2-2.5 7.3-0.6 14-2 2.4 0.4 4-1z"/><path fill-rule="evenodd" class="c3" d="m153.5 237.5q0.3 8.9-2 17 0.1-8.8 2-17z"/><path fill-rule="evenodd" class="c4" d="m243.5 232.5q0 2.5 2 4-2 1.5-2 4 7.8 2.6 16 4 1.3 3 2.5 6 0.5-2.5 1-5 3 3.3 7 1-0.1 1.9 0.5 3 2-1 4.5 0 4.6-0.7 0.5-2.5 2.7 0.1 5-0.5-0.8-1-2-1.5 2.7 0.1 5-0.5 1.1 3 3.5 5-0.5-2.3 0.5-4 2.5-1 5-2 0.4 1.6 0.5 4 2.1-5 5.5-2 1-0.8 1.5-2 0.5 1.9 1.5 3.5-3 1-6 2 2.1 0.6 4 1.5 1.5 0.8 0.5 2-2.9 0.6-5.5-2-2.5 0.6-5 1.5-2.4 7.8 2.5 1.5 0.5 1.5 1 3 1.1-1.4 2.5-0.5-0.4 3-4 5 0.8 0.8 1.5 1.5 1.4-2.1 4-2 6.8 2.3 13.5 4.5-5.2-0.4-10.5-1.5-2.5-0.3-4-2-2.2 3.2-5 6-2.5-2.6-3.5-6-3.7 0.3-6.5-2 0.5 3 1 6-3.1-1.6-4-5-1.5 1-3 2-3.1-3.8-7.5-2 1.1 0.6 3 0.5-1.1 2.1-0.5 4.5-1.1-1.4-2.5-0.5 2 3.7 6 4.5-1.1-8.6 4-2-1.1 1.2-2.5 2-1 1.2 0.5 2 3.1-2.8 7-1.5-1.8 1.3 0 2.5 2.3-3.9 2 1-1.8-0.3-3 1 1.5 1.3 0 2-5.6-4.6-12-3.5 2.5 2.3 5 4.5 1-1 2-2 1.8 1.2 0 2.5 2.4 1.3 5 2-1.7 1.5 1 2-3 1-5-1.5-3.2 2.1-3-2-2 0-4 0-0.5 0-1 0-2.7-1.7-6-2.5 1.7-3.3 4.5-1.5 0.5-3.2-2.5-5-1.6 3.7-2.5 0-0.5 0.5-1 1-0.4-5-2.5-8-5.7-0.4-7.5-6-0.6 1.4-1.5 2.5 3 1.3 2 3.5-1.6-2.1-4-3-5 3.4-10 0.5 1.2-2.8 4-2-2.2 1.2-1 2.5 2.4-1 5-1.5-1.4-0.7-3-0.5 0.2-1.6-0.5-3-1.7 1.7-2.5-1 3.5-2 7 0-1.5 1.3 0 2 3.1-2.4 7-3.5-5.8-2.6-11-6 0.5-0.8 1-1.5 3 3.8 5-1 2.3 3.9 2-1-2.6-0.2-5 1-2.6-0.8-5-2 2-1.8-0.5-3-0.9 3-3 1-2.4 6.8-9.5 8.5 2 0.5 4 1 1.8 1 0 1.5-4.6-0.9-9-2.5 2.9-1.2 1-3.5-2.5 1-5 2-1.9-2.3 0-4.5-1.9-0.5-3.5-1.5 2.1 2.7 1 6 2.4 1 4.5 2.5-1.7 0.4-3 1.5 2 1 4 2-2.2-0.7-3.5 2-2.1-1.6-4.5-0.5 4.2 1.7 6.5 5.5-1.2-8.8 3-1 1.8 0.9 3.5 2-5.8 1.2-2 5 1.8-1.2 0-2.5 1.9-1 3.5 0.5 0.8-1.5 1.5-3-2-1.5-4-3 1.7-3-1.5-1-1.8-6.9 3.5-2 1.7-1.7-1-2.5 3.1-1.2 6 0.5 1.7 1.4 0 2.5 3.3 1.4 4 5-4.6-0.1-7 3.5 1.5 1 3 2-2.2 1-3 3-3.5 0.8-7 2 1.7 1.4 0 2.5-6.4 2.2-10 7.5-3-1.7-1 1.5-2 2-4 4-1.9 0.7-2.5-1.5-0.4 1.4-1.5 2-0.3-3.3 2.5-5 1.6 1.2 3.5-0.5-3.6-0.6-7 0 2.2-2.6 2.5-5.5-1.5 1.5-3 3-1.9-3.6-1.5-7-4.5 0.7-7 4.5-5.8 0.4-10.5 3.5-7-2.5 0-1 3.5-3.4-1.5-3.5 3.3-1 3.5-4.5 3.2 3.9 3.5 0 1.9 4 6 2.5-1-0.5-2-1 1.3-1.5 1-3.5-2 0-4 0 0.3-1.8-1-3-1.4 1.8-1 4-2.9-0.4-4.5 2-0.7-1.4-0.5-3 1.6 0.2 3-0.5-2.9-0.3-4.5-2.5-1 2-2 0 0.9 5.4-2.5 0.5 2.7-1.4 5-3.5 1.5 0.7 2.5 2 1-3.6 3 0 1.1-1.7-0.5-3-4.7-1.4-10-1-3.4 1.1-5.5 4-2.7-4-6.5-7 0.8-2.5 1-5 1.5 3.6 4 7 3.4 4.4 3-1 2.5-0.3 4.5 1 6-3.1 0.5-2-1.5-0.5-2-2 1.1-0.6 3-0.5 2.6-1.6 2-3.5 7.1 3.9 1-1.5 1-0.5 2-1-3.3-2.3-6.5-4.5-2.4 1.7-3.5-1.5 1.8-3.1 2.5 0.5 1.1-1.7 2.5 0 1-1 2-2 4.3 2.2 7 6-2.9 2.7-1 6 1.3-1.2 1-3 5.7 0 3-5 1.2-1.4 3-2 4.4 1 1 2.5 2.9 2.8 6.5 4.5 0.7 1.6-0.5 3 2 3 4 6 1.2-0.6 2.5-1 1.5 0.6 1.5 2 1.2-0.5 2-1.5-3.6-1.7-7-4 3.6-1.5-1-2 5.1-0.2 9 3.5 0.5-0.5 1-1-2.9-2.3-5.5-5-1.2 0.2-2 1-0.6-1.4-1.5-2.5-5.6-0.3-2-3.5-5.8-1-2-4.5-2 0-4 0-1.7-1.5 1-2-3.3-0.2-5.5-2.5-0.5 1-1 2-0.3-2.9-2.5-4.5 0.8-1 2-1.5 2 2.5 5 1.5 0.2-3.3 0-6.5 2.3 2.5 5 4.5-1 0.5-2 1 4.1 2.8 9 3.5 1.2-1.3-1-2.5 2.4-2 5-1.5-2.3-1.5-1.5-4 2.4 1.3 3 4 2-2.7 4.5-5 1.7 2.1 3 4.5 1 1 2 0-2.4-3.6-3.5-7.5 1.4 0.8 2.5 2 0.8 3.6 3.5 6 5.1-6.2 7 2 3 1.7 5.5 4 1.8-1.2 0-2.5 2 0 4 0-0.9-1.1-1.5-2.5-3-0.2-6.5-0.5-1.1-2.3-3-4 2.2-0.8 3.5 1.5 3.2-1.1 6-3 2.7 1.4-0.5 2.5 1.8 0.7 2.5 2.5 0.6-0.8 1.5-1z"/><path fill-rule="evenodd" class="c5" d="m256.5 253.5q6.4 2.1 13 1.5-1.1 2.1-3.5 2.5-3.8-0.8-7.5-2-4.3 2.4-2-2z"/><path fill-rule="evenodd" class="c6" d="m337.5 201.5q5.7 51.7-23 95 9.7-19 17-39 1-3 2-6 1.8-18 3-36 0-0.5 0-1 1.3-6.4 1-13z"/><path fill-rule="evenodd" class="c7" d="m8.5 240.5q3.3 11 9 21 6.2 17 16.5 32 2.1 3.2 2.5 7-19.6-27.3-28-60z"/><path fill-rule="evenodd" class="c8" d="m269.5 278.5q-8.3-1.7-16-5-1.7-1.2-4-1.5 1-0.5 2-1-9.4-0.6-18.5-2.5-1 1.1-2.5 1 0.8-2 3-3-1.5-1-3-2 2.4-3.6 7-3.5-0.7-3.6-4-5 1.7-1.1 0-2.5-2.9-1.7-6-0.5 2.7 0.8 1 2.5-5.3-4.9-3.5 2 3.2-2 1.5 1 2 1.5 4 3-0.8 1.5-1.5 3-1.6-1.5-3.5-0.5 1.8 1.3 0 2.5-3.8-3.8 2-5-1.7-1.1-3.5-2-4.2-7.8-3 1-2.3-3.8-6.5-5.5 2.4-1.1 4.5 0.5 1.3-2.7 3.5-2-2-1-4-2 1.3-1.1 3-1.5-2.1-1.5-4.5-2.5 1.1-3.3-1-6 1.6 1 3.5 1.5-1.9 2.2 0 4.5 2.5-1 5-2 1.9 2.3-1 3.5 4.4 1.6 9 2.5 1.8-0.5 0-1.5-2-0.5-4-1 7.1-1.7 9.5-8.5 2.1 2 3-1 2.5 1.2 0.5 3 2.4 1.2 5 2 2.4-1.2 5-1 0.3 4.9-2 1-2 4.8-5 1-0.5 0.8-1 1.5 5.2 3.4 11 6-3.9 1.1-7 3.5-1.5-0.7 0-2-3.5-2-7 0 0.8 2.7 2.5 1 0.7 1.4 0.5 3 1.6-0.2 3 0.5-2.6 0.5-5 1.5-1.2-1.3 1-2.5-2.8-0.8-4 2 5 2.9 10-0.5 2.4 0.9 4 3 1-2.2-2-3.5 0.9-1.1 1.5-2.5 1.8 5.6 7.5 6 2.1 3 2.5 8 0.5-0.5 1-1 0.9 3.7 2.5 0 3 1.8 2.5 5-2.8-1.8-4.5 1.5 3.3 0.8 6 2.5z"/><path fill-rule="evenodd" class="c9" d="m153.5 307.5q-2.6 0.1-3-2.5 1.4-8.6 0-17.5-0.1 2.6-0.5 6-4.6-5-3.5-12-2.5-1-5-2 0.3-2-1-3.5 2.5-1.1 1.5-3.5-3.8 1.7-4-3-1.4 1.7-2.5-0.5 1-0.5 2-1-3.1-3.3-4-7.5-4.2 0.1-5.5-4-3.5 1-5-3-1.8 1.5-1.5 3-6.1-2-8-8-3.3-0.9-6-3-2.9 3.3-6 6.5 4 2.5 0 5 0.8 0.6 1 1.5-3.8-0.2-7 2-5.2 4.7-9.5 8-1.7-1.2-3.5-2 4.8-2.6 9-6 3.9-3.2 7.5-7 3.5-5.9 8-11 18.1 9.1 33 23 6.4 10.3 12 21 1.2 10.5 1.5 21z"/><path fill-rule="evenodd" class="ca" d="m325.5 250.5q1.9-0.4 3 1-4.9 13.7-15.5 24-8.1 17.1-14.5 35-1 0.5-2 1-2.5-2.1-5.5-4-0.7 1.4-0.5 3-3.2 0.2-6-1.5 2.2-1.7-0.5-2.5-4.9-0.5-8.5-3.5 5.4-0.9 1-4-4.1 1.3-10.5 2.5-4.8-1-9.5-2.5-0.5-0.5-1-1 4.8-3.7 9-8-0.4-1.4-1-2.5 2-2.5 4-5 4.2-0.6 3-4 2 0 4 0-0.2 4.1 3 2 2 2.5 5 1.5-2.7-0.5-1-2-2.6-0.7-5-2 1.8-1.3 0-2.5-1 1-2 2-2.5-2.3-5-4.5 6.4-1.1 12 3.5 1.5-0.7 0-2 1.2-1.3 3-1 0.3-4.9-2-1-1.8-1.2 0-2.5-3.9-1.3-7 1.5-1.5-0.8-0.5-2 1.4-0.8 2.5-2-5.1-6.6-4 2-4-0.8-6-4.5 1.4-0.9 2.5 0.5-0.6-2.4 0.5-4.5-1.9 0.1-3-0.5 4.4-1.8 7.5 2 1.5-1 3-2 0.9 3.4 4 5-0.5-3-1-6 2.8 2.3 6.5 2 1 3.4 3.5 6 2.8-2.8 5-6 1.5 1.7 4 2 5.3 1.1 10.5 1.5-6.7-2.2-13.5-4.5-2.6-0.1-4 2-0.8-0.8-1.5-1.5 3.6-2 4-5-1.4-0.9-2.5 0.5-0.5-1.5-1-3-4.9 6.3-2.5-1.5 2.5-0.9 5-1.5 2.6 2.6 5.5 2 1-1.2-0.5-2-1.9-0.9-4-1.5 3-1 6-2-1-1.6-1.5-3.5-0.5 1.2-1.5 2-3.4-3-5.5 2-0.1-2.4-0.5-4-2.5 1-5 2-1.4-1.2-3-2.5 5.9-1.2 0-1.5 1.1-5-4-5.5 3.2-0.5 1-2.5 3.2 2.2 7 3 0 1.5 0 3 5.2 0.5 7-4.5-4-1.5 0-3-2-1.2-2-3.5 1.4-2.4 1-4.5-3.6-1.6 1-1.5 0 1.5 0 3 1.5 0 3 0-0.3 2 1 3.5-1.5 0.5-3 1 5.9 3.4 0 7 3.7 1 5.5-2.5 0.3 0.8 0.5 1.5-1.7 2.1-4 3.5 0.3 0.5 0.5 1 3.5-0.5 7-1 1.5 2.5 3 5 1.6-1.7 2-4 0.6 1.4 1.5 2.5-1.9 2-3 4.5-1.5-2.3-4-1.5 2.4 1.3 1 3 1.9 0.5 3.5 1.5 3.4 4.1-1.5 6.5 4.1 0 8-2-1.4-1.1-0.5-2.5 2.7 1.1 5.5 2 1.5-0.7 0-2 2.2-1 4-2z"/><path fill-rule="evenodd" class="cb" d="m253.5 273.5q-2.9 0.4-5-1-3.2-1-7-1-5.5-0.3-10 2-10.1 0.6-16 9-10.1 10.4-6 24.5-7.9 2.2-16 2.5 5.8-2.6 12-5 1.2-5.2 2-10.5-0.9-3.8-4-6 0.3-0.6 1-0.5 1.1-0.6 1.5-2 0.6 2.2 2.5 1.5 2-2 4-4-2-3.2 1-1.5 3.6-5.3 10-7.5 1.7-1.1 0-2.5 3.5-1.2 7-2 1.5 0.1 2.5-1 9.1 1.9 18.5 2.5-1 0.5-2 1 2.3 0.3 4 1.5z"/><path fill-rule="evenodd" class="cc" d="m248.5 272.5q-8.5-0.1-17 1 4.5-2.3 10-2 3.8 0 7 1z"/><path fill-rule="evenodd" class="cd" d="m172.5 174.5q-1.4 3.2-3.5 6-0.7 11.5-0.5 23 7.2 0.3 1 3-1.1 0.6-1.5 2-3.1 17.4-4 35 4.2-3.1 8-7 0.7-0.9 0.5-2 6.4-6.7 12.5-14 0.9-3-1.5-5-1-6 3-10 0.2 0.9 1 1.5-1.8 2.2-2 5 1.4 3.1 2 6.5 10 0.2 20-0.5-1.4-1.1-0.5-2.5 4.5-0.9 6.5-5 5.3-1.6 10-4.5-1.1-1-1-2.5 7.7 1.5 9-6 4.9 2.5 6-3-2.6-6.2-9.5-7-1.4 0.6-2 2-1.3-0.9-3-1-10.5 3.7-21.5 5 0.2-0.9 1-1.5 8.2-1.8 16-4.5 14.5-1.7 29 0-6 8-12 16-8.9 8.7-20 14.5-12.3 3.8-25 2-12.8 16.8-27.5 31.5-2 10.4-1.5 21 2.8-0.4 4 2-2.2 2.2-3 5-2 9.1 1 18 0.3 13.6 2.5 27 0.5 0.5 1 1 2.6-2.8 5.5-5-0.4 2.9 2 4.5-2.4 0.7-5 2 0.5 0.5 1 1-1 4.1-3.5 7.5-0.5-0.5-1-1-0.7 2.6-2 5-0.6-0.7-1.5-1-4.5 0.5-7 4-3-1.4-6-3 2.5-1.8 5 0 1.2-0.7 1-2 1.9-12.1-1-24 0.4-2.9-1-5 0-0.5 0-1-0.3-10.5-1.5-21-5.6-10.7-12-21-14.9-13.9-33-23-4.5 5.1-8 11-3.6 3.8-7.5 7-0.6-1.1-1-2.5 2.7-2.6 6-4.5-0.3-0.9-1-1.5 5.8-3.5 8-10 5.3-0.3 10-1.5 2 0.5 4 1 0 1 1 1 7.1 5.1 15 9.5 8.8 6.5 15 15.5 1.2 1.3 3 1 0-7 0-14 2.3-8.1 2-17 1-10 2-20 0.1-4.8-3-8 1.3-1.6 3 0 1.5-10.5 1-21 1.2 10.2 1.5 21-0.8-6.5 5.5-7-0.2 3 0.5 6 0.9-2.4 3-4 0.6-13 0-26 1.5-3.6 5.5-4z"/><path fill-rule="evenodd" class="ce" d="m169.5 206.5q0.3 1.8 1 3.5-0.2 2.6-1.5 0.5-2.3 13.4-2 27 1.4-3.8 5.5-3 0.2 1.1-0.5 2-3.8 3.9-8 7 0.9-17.6 4-35 0.4-1.4 1.5-2z"/><path fill-rule="evenodd" class="cf" d="m197.5 195.5q0 2.3-2 3.5 2.7 0 5-1-0.8 2.5-3 4 2.4 1.7 5 1.5 0.8 2.3 0 5 11 0.7 20-5-0.1 1.5 1 2.5-4.7 2.9-10 4.5-2 4.1-6.5 5-0.9 1.4 0.5 2.5-10 0.7-20 0.5-0.6-3.4-2-6.5 0.2-2.8 2-5-0.8-0.6-1-1.5 3.6-7.1 11-10z"/><path fill-rule="evenodd" class="cg" d="m222.5 203.5q-9 5.7-20 5 0.8-2.7 0-5-2.6 0.2-5-1.5 2.2-1.5 3-4-2.3 1-5 1 2-1.2 2-3.5 1.5-1.8 4-2 11-1.3 21.5-5 1.7 0.1 3 1 0.6-1.4 2-2 6.9 0.8 9.5 7-1.1 5.5-6 3-1.3 7.5-9 6z"/><path fill-rule="evenodd" class="ch" d="m153.5 307.5q0 0.5 0 1-0.4 8.8-4 16.5 2.1 0.6 3 2.5-2 3 0 6-1.7 1.8-3.5 0-3.3 4.2-1.5-0.5-1.8-2.9-3 0.5-1.3-1.5-3-2.5 1.5-0.5 3-1-3.1-1.8-6-1 2-1.5 0-3 2.9-0.9 5 1.5 0.5-0.5 1-1-1.8-1.5-3-3.5 0.5-0.5 1-1-1.9-1-3.5 0.5-5.3-4.3-1.5 1-2.3 1.9-3.5-1-2.5 2.5-5 5-0.4-4.9-2.5-1 2.1 1.8-0.5 2-1.8-0.5-3.5-1.5 3.6-0.7 0.5-2.5-0.6 0.7-1.5 1-4.1-2.7-8-5 0.3-3-2-5 2-0.5 4-1-1.8-1.5-3-3.5-4.4 1.8-6-3 3.7-2.3 0-4 2.5-0.5 5-1-3.8-2.3 0-5-2.2-0.6-1.5-2.5 3.5 3.7 7.5 1.5-1.4-1.1-0.5-2.5 3.1 0.5 6.5 0.5-1 0.5-2 1 1.3 2 1 4.5 8.6-0.4 2-6.5 1.9-0.7 4-0.5-0.3 2.4 1.5 4 0-2.4-0.5-5-4.9 0.7-8-3-4 1-4 4-2-1-4-2-1 0.8-1.5 2-4.1-1.3-0.5-2.5-2.6-0.7-5-2 3.3 0.9 6-1-5.7-1.7-11-2 0.5-0.5 1-1-1.8-0.6-3-2 1.4-1.3 0-3 1.3-1.8 2.5-3.5 2.3 2.6 2.5 6 3.9-1.2 6-5-1.8-2.4-5-2.5 0.9-0.7 2-0.5 1.9-0.9 4-1.5-4-1 0-2-1.8-0.6-3-2 4-1.3 7 1.5 2.7-2 1-4.5 2.6-2.3 6-3-3.7-0.7-4.5-4.5-0.5 1.5-1 3-2.9-0.5-4.5 3 1.2 1.3 3 1 0.2 1.6-0.5 3-3-2-6.5-2.5 5.1-4.7-0.5-9.5-2.8 0.9-5.5 2-0.2-0.9-1-1.5 4-2.5 0-5 3.1-3.2 6-6.5 2.7 2.1 6 3 1.9 6 8 8-0.3-1.5 1.5-3 1.5 4 5 3 1.3 4.1 5.5 4 0.9 4.2 4 7.5-1 0.5-2 1 1.1 2.2 2.5 0.5 0.2 4.7 4 3 1 2.4-1.5 3.5 1.3 1.5 1 3.5 2.5 1 5 2-1.1 7 3.5 12 0.4-3.4 0.5-6 1.4 8.9 0 17.5 0.4 2.6 3 2.5z"/><path fill-rule="evenodd" class="ci" d="m66.5 234.5q-9.7 4.6-17 13-6.7 8.4-12 18 14.8 1.5 29.5 3 7.9 0.2 15.5-2 1.8 0.8 3.5 2 4.3-3.3 9.5-8 3.2-2.2 7-2 2.7-1.1 5.5-2 5.6 4.8 0.5 9.5 3.5 0.5 6.5 2.5 0.7-1.4 0.5-3-1.8 0.3-3-1 1.6-3.5 4.5-3 0.5-1.5 1-3 0.8 3.8 4.5 4.5-3.4 0.7-6 3 1.7 2.5-1 4.5-3-2.8-7-1.5 1.2 1.4 3 2-4 1 0 2-2.1 0.6-4 1.5 0-2.3-2-1.5-1 1.6-1.5 3.5-1.9-3.4-5.5-4-0.4-2.1-2.5-3 1 2.3 1 5-3.6-3.5-7.5-0.5 2 6.3-3 2.5-0.5 0.5-1 1 2 1.7 1.5 4-3.8-1.9-7.5-3-7.9 1.7 0 2.5-3.3 1-1 3.5-3.1 5.9-2 0-3.5-8.7-12-5.5 2 1.5 4 3-0.8 0.3-1.5 0.5-5.3-1.9-9.5-4.5 2.7 5.9 7 11-2.9 0-5-2.5-0.5 0.5-1 1 2 1.8 3.5 4 1.5-1.3 3.5-1-0.3 2 1 3.5 4.8 1.3 9 4-4.1 0.7-7-2.5-1 0.8-1.5 2-1-3.3-4.5-3.5 1.8-1 0-1.5-1.4 1.7-2.5 0-0.5 1.2-1.5 2-2.4-1.2-5-1 0-1.5 0-3-2.5 0.3-4.5-1-0.5 1.5-1 3-2.1-1.5-2.5 1.5 1 2.6 3 0.5 2 2.3 1 4.5 3.3 2.4 7 0.5-0.1 2.1 1 4 3.2 2.6 5 6-0.3 1-0.5 2-0.2-4.7-4.5-3.5 0.7 3.3 0 8.5-4.9-6.7-10.5-13-3.1-2.4-6.5-4-2.1-5.3-6-9.5 0.7-0.6 1-1.5-5-4.6-4-11-3.5-4.3-3.5-10-3.4-3.5-6.5-7.5 1.5-3.8-3-4.5-1-2.5-2-5 0.5-3.8-1-7 0.2-5.1 3-1 1.8-1.2 0-2.5 5.3-3.1 9 2 5.3 0.4 7.5 5.5 3-2.2 5 1 1.8-0.9 3.5-2-6-4 1-2.5-1.8-1.7 0-3.5 0.7-1.5 1.5-3 3.1 3.1 3 0-2.3-1.2-3.5-3.5 7.4-5.6 9 3.5 5.5-3.2 12-3z"/><path fill-rule="evenodd" class="cj" d="m248.5 272.5q2.1 1.4 5 1 7.7 3.3 16 5 0.5 0 1 0 1.2 3.4-3 4-3.6 0.4-6 3-2.2-0.2-4.5-1-6.3 3.5-13.5 3 0 2.5 2 4-6.7 2.1-13 5-2.5-0.8-5-1 0-2 0-4 8.8-4.1 18-7.5-1.2-2.6-4-2.5 0 1.5 0 3-2.5-0.2-4.5-2-1.3 0.4-2.5 1-3.1-2.3-5.5-5-2.6 0.7 0.5 1.5-1 1.6-1.5 3.5-0.5-0.5-1-1-1.9 2-0.5 4-3.5 1.2-7 2-4.2-1.5-4-6 5.9-8.4 16-9 8.5-1.1 17-1z"/><path fill-rule="evenodd" class="ck" d="m18.5 255.5q4.5 0.7 3 4.5 3.1 4 6.5 7.5 0 5.7 3.5 10-1 6.4 4 11-0.3 0.9-1 1.5 3.9 4.2 6 9.5-0.9 1.3-1 3-1.5-1-3-2-0.4-3.8-2.5-7-10.3-15-16.5-32 1.3-2.8 1-6z"/><path fill-rule="evenodd" class="cl" d="m162.5 279.5q0 1.5 0 3 0.4 7.5 1 15-3-8.9-1-18z"/><path fill-rule="evenodd" class="cm" d="m267.5 282.5q-2 2.5-4 5-7.1 8.1-17 13-6.9 0.4-11 7-4.1 3.6-9 6-3.1 6.1-0.5 12 0.5-2.4 2-5 3.1 0.7 6 4 0 3 0 6 4.2 0.9 8 3 0.5 3.5 1 7 2-4.1 4-1 1.5-1 3-2 3.3 2.8 7.5 4 1.1 1.9 1 4 4.5 0.2 9-0.5 3.1-1.4 1-4 6.9-2.7 14-0.5-0.2-1.6 0.5-3 0.5 0.5 1 1 2.4-3.1 6-5 4.2 2 7.5 5-21 6.7-39 19 2.8-2.4 4-6-4.5 0-9 0-14.4-1.6-23.5-13-7-11.4-11.5-24-6.1-1.9-12 0-10.3-1-19 4-4.9 1.9-9 5-4.6 3.7-7 9-4.6 5-5.5 12-0.8 14.1-2.5 28-1.3 3.3-1 7 9.3 0.6 18 2-8.1-0.2-15.5 0-1.7 13.5-3 27-0.8 4.5-4.5 7-1.9-0.9-2.5-3-1.1-9.3 0.5-18.5-1.2-6.8-3-13.5-14.8-3.8-29-9 15.4 3.7 31 7 0-2.5 0-5 0-1.5 0-3 1.5-13.9 1-28 2.5-3.5 7-4 0.9 0.3 1.5 1 1.3-2.4 2-5 0.5 0.5 1 1 2.5-3.4 3.5-7.5-0.5-0.5-1-1 2.6-1.3 5-2-2.4-1.6-2-4.5 3.2-3 7-5.5 7.1-2.8 14-5.5 8.1-0.3 16-2.5-4.1-14.1 6-24.5-0.2 4.5 4 6 3.5-0.8 7-2-1.4-2 0.5-4 0.5 0.5 1 1 0.5-1.9 1.5-3.5-3.1-0.8-0.5-1.5 2.4 2.7 5.5 5 1.2-0.6 2.5-1 2 1.8 4.5 2 0-1.5 0-3 2.8-0.1 4 2.5-9.2 3.4-18 7.5 0 2 0 4 2.5 0.2 5 1 6.3-2.9 13-5-2-1.5-2-4 7.2 0.5 13.5-3 2.3 0.8 4.5 1 2.4-2.6 6-3z"/><path fill-rule="evenodd" class="cn" d="m166.5 253.5q-0.2 2.5-1 5 3.8 3 6.5 7 2.1-2.9 5.5-4 5.3-0.4 10 1 1.6 1.3 0.5 3-2-3.6-3 0-1-1.3-2.5-2-2.3 2.1-5 3.5 3.4 4.9 2.5-0.5 1 2 2 0 1.6 2.2 4.5 2.5-1.4 0.7-3 0.5-0.2 1.6 0.5 3 1.6-2.4 4.5-2-0.4-2.2 1-4 1.3 1.2 1 3 2 0 4 0 0.3 2-1 3.5 1 0.5 2 1-4.1 1.5-6-2.5-0.3 3.9-3.5 0-0.2 3.5-3.5 4.5 5 0.1 1.5 3.5-7-1.5 0 1 4.7-3.1 10.5-3.5 2.5-3.8 7-4.5-0.4 3.4 1.5 7 1.5-1.5 3-3-0.3 2.9-2.5 5.5 3.4-0.6 7 0-1.9 1.7-3.5 0.5-2.8 1.7-2.5 5-0.7-0.1-1 0.5 3.1 2.2 4 6-0.8 5.3-2 10.5-6.2 2.4-12 5-6.9 2.7-14 5.5-3.8 2.5-7 5.5-2.9 2.2-5.5 5-0.5-0.5-1-1-2.2-13.4-2.5-27-0.6-7.5-1-15 3.4-4.1 5-9.5-1.8-2.3-4.5-3.5-1.1-6.6 0.5-13 0.6-2.5 3-3z"/><path fill-rule="evenodd" class="co" d="m263.5 287.5q0.6 1.1 1 2.5-4.2 4.3-9 8 0.5 0.5 1 1 4.7 1.5 9.5 2.5 6.4-1.2 10.5-2.5 4.4 3.1-1 4 3.6 3 8.5 3.5 2.7 0.8 0.5 2.5 2.8 1.7 6 1.5-0.2-1.6 0.5-3 3 1.9 5.5 4-1.5 3-3 6 0 0.5 0 1-6.1-5.1-13-9-12.4-7-27-8-3.8 0.5-7-1 9.9-4.9 17-13z"/><path fill-rule="evenodd" class="cp" d="m328.5 251.5q2.5 0 5 0-1 3-2 6-4 3.1-7 7.5 1 0.5 2 1-2.2 7.2-7 13 0.7 0.6 1 1.5-3.1 6.8-7.5 13-0.5 3-1 6-4.6 3.9-9.5 7 0.4 2.9-2 4.5 1.5 3.1-2 5-2.3 1.5-5 1.5 1.5-3 3-6 1-0.5 2-1 6.4-17.9 14.5-35 10.6-10.3 15.5-24z"/><path fill-rule="evenodd" class="cq" d="m331.5 257.5q-7.3 20-17 39-3.5 9-10 16-4.6 3.6-7 9-1.1-0.6-1.5-2-0.6 0.8-1.5 1-1.3-0.5-1-2 0-0.5 0-1 2.7 0 5-1.5 3.5-1.9 2-5 2.4-1.6 2-4.5 4.9-3.1 9.5-7 0.5-3 1-6 4.4-6.2 7.5-13-0.3-0.9-1-1.5 4.8-5.8 7-13-1-0.5-2-1 3-4.4 7-7.5z"/><path fill-rule="evenodd" class="cr" d="m206.5 314.5q-9.5 1.3-19 4 8.7-5 19-4z"/><path fill-rule="evenodd" class="cs" d="m253.5 301.5q14.6 1 27 8-3.2 3.5-6-1-4.9-0.9-9-3.5-3.5-0.7-7-0.5 0 2 0 4 2 0.3 3.5-1 2.3 2.1 5.5 3 2.5 3 2 7 3 0 6 0 0 3.1 1 6-2.6-1.6-2-5-3.4 0.4-6.5-1-3.3 2.9-7.5 0.5-1.7-2.4 1.5-3.5 1-1.2-0.5-2-2 1.2-3.5 3-4.1-1.2-8.5 0-0.1-2.1 1-4-0.8-0.5-1.5-1-4.9 2.9-10.5 1.5 1.7-1.6 4-2-1.9-0.7-4-0.5 0-1.5 0-3 3.9-1.4 8-3 1 0.3 2 0.5-1.4 1.1-0.5 2.5 1.8-1.6 1.5-4 2.4 0.4 4-1z"/><path fill-rule="evenodd" class="ct" d="m280.5 309.5q6.9 3.9 13 9-0.3 1.5 1 2 0.2 0.9 1 1.5-2.5 0.7-5 0.5 0.2 1.6-0.5 3-2.5-1.5-4-4-1.8 1.6-1.5 4-2.7-1.1-2-3-2.6 3.3-6 1-1-2.9-1-6-3 0-6 0 0.5-4-2-7-3.2-0.9-5.5-3-1.5 1.3-3.5 1 0-2 0-4 3.5-0.2 7 0.5 4.1 2.6 9 3.5 2.8 4.5 6 1z"/><path fill-rule="evenodd" class="cu" d="m36.5 300.5q1.5 1 3 2 8.5 7.3 14 17 0.9 3.9 3.5 7 5.2 4.4 8.5 10-16.8-16.3-29-36z"/><path fill-rule="evenodd" class="cv" d="m154.5 313.5q2.9 11.9 1 24-0.2-12-1-24z"/><path fill-rule="evenodd" class="cw" d="m253.5 351.5q0 1.5-1.5 2-6.7 0.2-9.5 6-3.5 1-7 2 0.3-4 3.5-2 0.9-3.5 4.5-3-0.7-6.5-2.5-1-2.5-4.7-6.5-1.5 4.2 3.1-1 2-3.1-1.5-1-4-3.3-6.6 2-0.5 3-0.9 1-3-8.3-4.6-16-9.5 1.5-1.5 3-3-2.8-1.3-3-4.5-0.9-4.1 0-9-2-4.1-5.5-7-1.9 0.4-3 2-1.6-1.2-3.5 0.5-15 0.7-29 5.5 4.1-3.1 9-5 9.5-2.7 19-4 5.9-1.9 12 0 4.5 12.6 11.5 24 9.1 11.4 23.5 13z"/><path fill-rule="evenodd" class="aR" d="m99.5 349.5q-3.5 1.1-7 1-3.1-4.1-8-6-1.3-1.2-1-3-2.2 0.4-4-1-10.7-12.4-22-24 3.1-4.2 8-2-0.8 1.2-2.5 0-1.9 0.5-1 2 3 1.1 5.5 3 0.9-0.3 1.5-1 1.4 1.9 2.5 4 0.9-1.8 0.5-4 3.1 1.9 4-2 3.1 6.1 9.5 5-3.1-2.2-3-6 2 0 4 0-0.4-2.8 2-4 3.1 1.9 5 5-0.1 3.5-1.5 7 0.5-1 1-2 8.2-0.4 12.5 6.5 2.4-0.9 4 1-1.4 0.6-2.5 1.5-4.5-1-9.5 0 0.2-1.6-0.5-3-3.5 3.5-9 4-0.5-1.2-1.5-2-1.7 1.8-0.5 4 2.5-1 5-2 0.7 1.4 0.5 3 7 1.7 3 7.5 5.2 0.4 1 4 2.8 1 4 3.5z"/><path fill-rule="evenodd" class="cx" d="m235.5 361.5q-8.6-1.2-15 4.5-13.2 3.3-26 7.5-1.3-2.2-4-2.5 2.7-0.5 1-2-2.3-0.5-4 1.5-1.9-0.9-4-1.5 1-0.5 2-1-2-0.5-4-1-1.8-1.8 0-3.5 1.4 3.7 4.5 2 1.3 4.4 3 1 0.6 0.7 1.5 1 1.3-1.5 2.5-3 1.9 1.7 1-1-2-1.8-3.5-4 1-4 0-7.5 2.7 1.3 6 1-8-7.3 4-8-1.7-1.1 0-2.5-3.6-1.3-6-4-5.8 0.7-9 3-2.3-0.4-4-2-1.2 1.1-2 2.5 4.1 0.4 8 1.5 2.8-1.6 1.5 2-0.5-0.5-1-1-0.7 1.8-2.5 2.5 2.3 0.5 3.5 2.5 1.1-1.4 2.5-0.5-1.7 1.6-3 3.5-2.4-1.6-2.5 2-3-5.4-6.5-0.5 0.9 2.7 1.5 5.5 0.3-3.3 2-6 1.3 3.5 4.5 5.5-0.3 0.8-0.5 1.5-1.9-2.9-4.5-1 1 1 2 2-0.5 0.5-1 1-1.9-1.1-4-1-0.8-5.9-2.5 0-0.2-3.5-3.5-4.5 6.3 0.2 3.5-4.5-0.5 1.5-1 3-3.8-1-6 3-1-2 0-4 2-1 3.5-3.5-0.2-1.6-1.5-2.5-1.3 1.6-2.5 3-0.4-4.3-1-9 2.4-4.8 3-10 2.4-5.3 7-9 14-4.8 29-5.5 1.9-1.7 3.5-0.5 1.1-1.6 3-2 3.5 2.9 5.5 7-0.9 4.9 0 9 0.2 3.2 3 4.5-1.5 1.5-3 3 7.7 4.9 16 9.5 2 2.1-1 3-5.3-6.1-2 0.5-2.1 2.5 1 4 5.2 1.1 1-2 4-3.2 6.5 1.5 1.8-5.5 2.5 1-3.6-0.5-4.5 3-3.2-2-3.5 2z"/><path fill-rule="evenodd" class="cy" d="m246.5 300.5q3.2 1.5 7 1-1.6 1.4-4 1 0.3 2.4-1.5 4-0.9-1.4 0.5-2.5-1-0.3-2-0.5-4.1 1.6-8 3 0 1.5 0 3 2.1-0.2 4 0.5-2.3 0.4-4 2 5.6 1.4 10.5-1.5 0.8 0.5 1.5 1-1.1 1.9-1 4 4.4-1.2 8.5 0 1.5-1.8 3.5-3 1.5 0.8 0.5 2-3.2 1.1-1.5 3.5 4.2 2.4 7.5-0.5 3.1 1.4 6.5 1-0.6 3.4 2 5 3.4 2.3 6-1-0.7 1.9 2 3 1.4 1.3 0 2-1.4-0.9-3-1-8.4-2.2-17-4-1.4 0.2-2.5 1-5.8-6-14.5-6-2.1 0.6-2.5 3-0.8-5.5-6.5-6-3.4 0.7-4 4 1.6 4 4 7.5 2.5 0.4 4.5-1.5 0.1 4.4 2.5 8 3.4 1.1 5.5 4 0.7-1.4 0.5-3 2.8-0.3 4.5 2 0.6-0.7 1.5-1 4.3 0.9 8.5 2 1.3-4.7 3.5-1 2.3-1.9 4.5 0 3.1-1.1 6.5-1.5 1.4-2.5 1-5.5 1.4 1.6 1 4 2.5-0.3 4.5 1 1.1-1.6 3-2 7.4 5.9 13.5 0-1.7-6.2-8-5 0.5-2.7 2-5 2.4-5.4 7-9-2.5 5-5 10 4.6 5.6 8 12-0.5 1.7-2 2.5-4 0.9-8 1.5-3.3-3-7.5-5-3.6 1.9-6 5-0.5-0.5-1-1-0.7 1.4-0.5 3-7.1-2.2-14 0.5 2.1 2.6-1 4-4.5 0.7-9 0.5 0.1-2.1-1-4-4.2-1.2-7.5-4-1.5 1-3 2-2-3.1-4 1-0.5-3.5-1-7-3.8-2.1-8-3 0-3 0-6-2.9-3.3-6-4-1.5 2.6-2 5-2.6-5.9 0.5-12 4.9-2.4 9-6 4.1-6.6 11-7z"/><path fill-rule="evenodd" class="cz" d="m247.5 317.5q0.3 6.6 4 12 4.9-1.4 10 0-0.2-1.6 0.5-3 2.3 3.2 5.5 1 1 2 2 4 3.4-1.3 7-1 0-1.5 0-3 1.8-0.3 3 1-1.5 1.3 0 2 1-1.1 2-2 0.4 3-1 5.5-3.4 0.4-6.5 1.5-2.2-1.9-4.5 0-2.2-3.7-3.5 1-4.2-1.1-8.5-2-0.9 0.3-1.5 1-1.7-2.3-4.5-2 0.2 1.6-0.5 3-2.1-2.9-5.5-4-2.4-3.6-2.5-8-2 1.9-4.5 1.5-2.4-3.5-4-7.5 0.6-3.3 4-4 5.7 0.5 6.5 6 0.4-2.4 2.5-3z"/><path fill-rule="evenodd" class="cA" d="m297.5 321.5q-1.5 2.3-2 5 6.3-1.2 8 5-6.1 5.9-13.5 0-1.9 0.4-3 2-2-1.3-4.5-1 0.4-2.4-1-4 0-1 0-2 1.6 0.1 3 1 1.4-0.7 0-2-0.3-2.4 1.5-4 1.5 2.5 4 4 0.7-1.4 0.5-3 2.5 0.2 5-0.5-0.8-0.6-1-1.5 0.9-0.2 1.5-1 0.4 1.4 1.5 2z"/><path fill-rule="evenodd" class="cB" d="m247.5 317.5q8.7 0 14.5 6 1.1-0.8 2.5-1 8.6 1.8 17 4 0 1 0 2-1 0.9-2 2-1.5-0.7 0-2-1.2-1.3-3-1 0 1.5 0 3-3.6-0.3-7 1-1-2-2-4-3.2 2.2-5.5-1-0.7 1.4-0.5 3-5.1-1.4-10 0-3.7-5.4-4-12z"/><path fill-rule="evenodd" class="cC" d="m98.5 272.5q0.9 1 2 2-2.3 1.4-5 1-0.2 3.5 0.5 7 0.5-1 1-2 3 3.3-0.5 5.5 1.7 1.7-1 2.5-2.1-2-5-2.5 2.5-1.1 1.5-3.5-2.2 3.4-5 0 0.9 3.9 4.5 6.5-0.6 1.4-1 2.5-1-1-2-2-0.5 0.5-1 1 2.9 3.1 4.5 7 0.5-3 1-6 3 3.3 3.5 7 1.2 1.3 3 1 0.1 2.1-1 4 0.8 1 2 1.5-5.2 1.3-3 6-5.2-1.2-3 4 2.7 2.2 6 3-1.5 1.6-0.5 3.5 1-2 2-4 1.7 3.2 3.5 6.5 3.3 1.9 7 3-1 0.5-2 1 3.3 0.6 6.5 1.5 1.8-1.2 3-3 3.6 5.7 9 2 1 3.6 3 0 1 2 2 4 0.6-1.8 2-3 2.4 3.2 6.5 4-3-0.6-6 1.5-2 5.7-8 4.5 0.2-1.6-0.5-3-3 1.1-3 3-3.6-1.8-7.5-2.5-1.1-3.1-1.5-6.5-3.6 0.7-7.5 0.5 3.4 1.5 7 1.5 0.5 3.6-1 7-1-0.8-1.5-2-0.6 1.4-1.5 2.5 2.5 0.7 5 0.5 0.6 13.2-3 1-3.3 0.5-5.5-2-0.8 2.2 1.5 3.5-1.2 1.4-3 2 1.4 1.1 0.5 2.5-1.5-1.3-3.5-1-0.2-4.8-2.5-1-0.4-1.7-1.5-3-0.8 3.3 0 7-1.2-2.5-4-3.5 4.2-3.6-1-4 4-5.8-3-7.5 0.2-1.6-0.5-3-2.5 1-5 2-1.2-2.2 0.5-4 1 0.8 1.5 2 5.5-0.5 9-4 0.7 1.4 0.5 3 5-1 9.5 0 1.1-0.9 2.5-1.5-1.6-1.9-4-1-4.3-6.9-12.5-6.5-0.5 1-1 2 1.4-3.5 1.5-7-1.9-3.1-5-5-2.4 1.2-2 4-2 0-4 0-0.1 3.8 3 6-6.4 1.1-9.5-5-0.9 3.9-4 2 0.4 2.2-0.5 4-1.1-2.1-2.5-4-0.6 0.7-1.5 1-2.5-1.9-5.5-3-0.9-1.5 1-2 1.7 1.2 2.5 0-4.9-2.2-8 2 0.7-5.2 0-8.5 4.3-1.2 4.5 3.5 0.3-1 0.5-2-1.8-3.4-5-6-1.1-1.9-1-4-3.7 1.9-7-0.5 1-2.2-1-4.5-2 2.1-3-0.5 0.4-3 2.5-1.5 0.5-1.5 1-3 2 1.3 4.5 1 0 1.5 0 3 2.6-0.2 5 1 1-0.8 1.5-2 1.1 1.7 2.5 0 1.8 0.5 0 1.5 3.5 0.2 4.5 3.5 0.5-1.2 1.5-2 2.9 3.2 7 2.5-4.2-2.7-9-4-1.3-1.5-1-3.5-2-0.3-3.5 1-1.5-2.2-3.5-4 0.5-0.5 1-1 2.1 2.5 5 2.5-4.3-5.1-7-11 4.2 2.6 9.5 4.5 0.8-0.3 1.5-0.5-2-1.5-4-3 8.5-3.2 12 5.5-1.1 5.9 2 0-2.3-2.5 1-3.5-7.9-0.8 0-2.5 3.7 1.1 7.5 3 0.5-2.3-1.5-4 0.5-0.5 1-1 5 3.8 3-2.5 3.9-3 7.5 0.5 0-2.7-1-5 2.1 0.9 2.5 3z"/><path fill-rule="evenodd" class="cD" d="m53.5 319.5q8.1 10.4 18 19.5 3.2 2.1 7 2.5 2.8 4.6 6.5 9 2.8 0.9 5.5 2 0.9-0.3 1.5-1 3.4 2 6.5 4.5 4.8 0.6 8.5 3.5 0.5-0.5 1-1 1.4 1.6 2.5 3.5 6.4 0.3 12 3-1.3 2.9 1 5.5 4.7-2.5 8 1.5 10.1 0.1 19.5 4.5 1.8-1.6 3.5-3 0 2.5 0 5-15.6-3.3-31-7-28.5-10-52-28.5-3.3-3.1-6-6.5-3.3-5.6-8.5-10-2.6-3.1-3.5-7z"/><path fill-rule="evenodd" class="cE" d="m98.5 272.5q3.6 0.6 5.5 4 0.5-1.9 1.5-3.5 2-0.8 2 1.5-1.1-0.2-2 0.5 3.2 0.1 5 2.5-2.1 3.8-6 5-0.2-3.4-2.5-6-1.2 1.7-2.5 3.5 1.4 1.7 0 3 1.2 1.4 3 2-0.5 0.5-1 1 5.3 0.3 11 2-2.7 1.9-6 1 2.4 1.3 5 2-3.6 1.2 0.5 2.5 0.5-1.2 1.5-2 2 1 4 2 0-3 4-4 3.1 3.7 8 3 0.5 2.6 0.5 5-1.8-1.6-1.5-4-2.1-0.2-4 0.5 6.6 6.1-2 6.5 0.3-2.5-1-4.5 1-0.5 2-1-3.4 0-6.5-0.5-0.9 1.4 0.5 2.5-4 2.2-7.5-1.5-0.7 1.9 1.5 2.5-3.8 2.7 0 5-2.5 0.5-5 1 3.7 1.7 0 4 1.6 4.8 6 3 1.2 2 3 3.5-2 0.5-4 1 2.3 2 2 5 3.9 2.3 8 5 0.9-0.3 1.5-1 3.1 1.8-0.5 2.5 1.7 1 3.5 1.5 2.6-0.2 0.5-2 2.1-3.9 2.5 1 2.5-2.5 5-5 1.2 2.9 3.5 1-3.8-5.3 1.5-1 1.6-1.5 3.5-0.5-0.5 0.5-1 1 1.2 2 3 3.5-0.5 0.5-1 1-2.1-2.4-5-1.5 2 1.5 0 3 2.9-0.8 6 1-1.5 0.5-3 1 1.7 1 3 2.5 1.2-3.4 3-0.5-1.8 4.7 1.5 0.5 1.8 1.8 3.5 0-2-3 0-6-0.9-1.9-3-2.5 3.6-7.7 4-16.5 1.4 2.1 1 5 0.8 12 1 24 0.2 1.3-1 2-2.5-1.8-5 0 3 1.6 6 3 0.5 14.1-1 28-10.1-1.7-19-6.5-8.7-0.2-17-3-9.1-6.4-19-11.5-0.8-3.7 0-7 1.1 1.3 1.5 3 2.3-3.8 2.5 1 2-0.3 3.5 1 0.9-1.4-0.5-2.5 1.8-0.6 3-2-2.3-1.3-1.5-3.5 2.2 2.5 5.5 2 3.6 12.2 3-1-2.5 0.2-5-0.5 0.9-1.1 1.5-2.5 0.5 1.2 1.5 2 1.5-3.4 1-7-3.6 0-7-1.5 3.9 0.2 7.5-0.5 0.4 3.4 1.5 6.5 3.9 0.7 7.5 2.5 0-1.9 3-3 0.7 1.4 0.5 3 6 1.2 8-4.5 3-2.1 6-1.5-4.1-0.8-6.5-4-1.4 1.2-2 3-1-2-2-4-2 3.6-3 0-5.4 3.7-9-2-1.2 1.8-3 3-3.2-0.9-6.5-1.5 1-0.5 2-1-3.7-1.1-7-3-1.8-3.3-3.5-6.5-1 2-2 4-1-1.9 0.5-3.5-3.3-0.8-6-3-2.2-5.2 3-4-2.2-4.7 3-6-1.2-0.5-2-1.5 1.1-1.9 1-4-1.8 0.3-3-1-0.5-3.7-3.5-7-0.5 3-1 6-1.6-3.9-4.5-7 0.5-0.5 1-1 1 1 2 2 0.4-1.1 1-2.5-3.6-2.6-4.5-6.5 2.8 3.4 5 0 1 2.4-1.5 3.5 2.9 0.5 5 2.5 2.7-0.8 1-2.5 3.5-2.2 0.5-5.5-0.5 1-1 2-0.7-3.5-0.5-7 2.7 0.4 5-1-1.1-1-2-2z"/><path fill-rule="evenodd" class="cF" d="m171.5 332.5q-0.6 5.2-3 10 0.6 4.7 1 9 0.2 2.8-1.5 1-0.3 4.9-1.5 9.5 2 4.5 0 9 1.5 1 3 0-1.3-2-1-4.5 8.5 0.7 1 2.5 3.8 0.9 6 3.5-4.5 0-9 0-1.5 0-3 0 1.7-13.9 2.5-28 0.9-7 5.5-12z"/><path fill-rule="evenodd" class="cG" d="m40.5 299.5q3.4 1.6 6.5 4 5.6 6.3 10.5 13 11.3 11.6 22 24 1.8 1.4 4 1-0.3 1.8 1 3 4.9 1.9 8 6 3.5 0.1 7-1 9.9 5.1 19 11.5 8.3 2.8 17 3 8.9 4.8 19 6.5 0 1.5 0 3-1.7 1.4-3.5 3-9.4-4.4-19.5-4.5-3.3-4-8-1.5-2.3-2.6-1-5.5-5.6-2.7-12-3-1.1-1.9-2.5-3.5-0.5 0.5-1 1-3.7-2.9-8.5-3.5-3.1-2.5-6.5-4.5-0.6 0.7-1.5 1-2.7-1.1-5.5-2-3.7-4.4-6.5-9-3.8-0.4-7-2.5-9.9-9.1-18-19.5-5.5-9.7-14-17 0.1-1.7 1-3z"/><path fill-rule="evenodd" class="cH" d="m253.5 351.5q4.5 0 9 0-1.2 3.6-4 6-15.3 11.2-34 16 1.7-2 4-3.5-1.3-1-2-2.5 2.2-1.1 3.5-3 0.6 1.4 2 2 6-2.1 11.5-5-0.5-1-1-2 2.8-5.8 9.5-6 1.5-0.5 1.5-2z"/><path fill-rule="evenodd" class="cI" d="m242.5 359.5q0.5 1 1 2-5.5 2.9-11.5 5-1.4-0.6-2-2-1.3 1.9-3.5 3 0.7 1.5 2 2.5-2.3 1.5-4 3.5-6.5-0.2-13 0.5-2.6 2.8-3.5-0.5-0.8 1.5-2.5 2-4.4-2.4-8 1-1.9-0.7-3-2 0-0.5 0-1 12.8-4.2 26-7.5 6.4-5.7 15-4.5 3.5-1 7-2z"/><path fill-rule="evenodd" class="cJ" d="m194.5 373.5q0 0.5 0 1-1 0-2 0-5.2 1.7-10-1.5-3.5-0.7-7-0.5-2.2-2.6-6-3.5 7.5-1.8-1-2.5-0.3 2.5 1 4.5-1.5 1-3 0 2-4.5 0-9 1.2-4.6 1.5-9.5 1.7 1.8 1.5-1 1.2-1.4 2.5-3 1.3 0.9 1.5 2.5-1.5 2.5-3.5 3.5-1 2 0 4 2.2-4 6-3 0.5-1.5 1-3 2.8 4.7-3.5 4.5 3.3 1 3.5 4.5 1.7-5.9 2.5 0 2.1-0.1 4 1 0.5-0.5 1-1-1-1-2-2 2.6-1.9 4.5 1 0.3-0.8 0.5-1.5-3.2-2-4.5-5.5-1.7 2.7-2 6-0.6-2.8-1.5-5.5 3.5-4.9 6.5 0.5 0.1-3.6 2.5-2 1.3-1.9 3-3.5-1.4-0.9-2.5 0.5-1.2-2-3.5-2.5 1.8-0.7 2.5-2.5 0.5 0.5 1 1 1.3-3.6-1.5-2-3.9-1.1-8-1.5 0.8-1.4 2-2.5 1.7 1.6 4 2 3.2-2.3 9-3 2.4 2.7 6 4-1.7 1.4 0 2.5-12 0.7-4 8-3.3 0.3-6-1 1 3.5 0 7.5 1.5 2.2 3.5 4 0.9 2.7-1 1-1.3 1.5-2.5 3-0.9-0.3-1.5-1-1.7 3.4-3-1-3.1 1.7-4.5-2-1.8 1.7 0 3.5 2 0.5 4 1-1 0.5-2 1 2.1 0.6 4 1.5 1.7-2 4-1.5 1.7 1.5-1 2 2.7 0.3 4 2.5z"/><path fill-rule="evenodd" class="cK" d="m163.5 372.5q1.5 0 3 0-0.7 1.4-2 2.5 2 1 3 3 13.6 1.1 27-1-1.9-0.6-2-2.5 1 0 2 0 1.1 1.3 3 2 3.6-3.4 8-1 1.7-0.5 2.5-2 0.9 3.3 3.5 0.5 6.5-0.7 13-0.5-21.1 8.8-44 8-8.7-1.4-18-2-0.3-3.7 1-7z"/><path fill-rule="evenodd" class="cL" d="m166.5 372.5q4.5 0 9 0 3.5-0.2 7 0.5 4.8 3.2 10 1.5 0.1 1.9 2 2.5-13.4 2.1-27 1-1-2-3-3 1.3-1.1 2-2.5z"/></svg>